<?xml version="1.0" standalone="no"?>
<svg xmlns:xlink="http://www.w3.org/1999/xlink" id="wave" style="transform:rotate(0deg); transition: 0.3s" viewBox="0 0 1440 140" version="1.1" xmlns="http://www.w3.org/2000/svg"><defs><linearGradient id="sw-gradient-0" x1="0" x2="0" y1="1" y2="0"><stop stop-color="rgba(0, 153, 255, 1)" offset="0%"/><stop stop-color="rgba(0, 153, 255, 1)" offset="100%"/></linearGradient></defs><path style="transform:translate(0, 0px); opacity:1" fill="url(#sw-gradient-0)" d="M0,70L16,63C32,56,64,42,96,51.3C128,61,160,93,192,105C224,117,256,107,288,86.3C320,65,352,33,384,25.7C416,19,448,37,480,46.7C512,56,544,56,576,65.3C608,75,640,93,672,98C704,103,736,93,768,81.7C800,70,832,56,864,51.3C896,47,928,51,960,58.3C992,65,1024,75,1056,84C1088,93,1120,103,1152,91C1184,79,1216,47,1248,28C1280,9,1312,5,1344,9.3C1376,14,1408,28,1440,44.3C1472,61,1504,79,1536,81.7C1568,84,1600,70,1632,63C1664,56,1696,56,1728,63C1760,70,1792,84,1824,77C1856,70,1888,42,1920,30.3C1952,19,1984,23,2016,42C2048,61,2080,93,2112,102.7C2144,112,2176,98,2208,79.3C2240,61,2272,37,2288,25.7L2304,14L2304,140L2288,140C2272,140,2240,140,2208,140C2176,140,2144,140,2112,140C2080,140,2048,140,2016,140C1984,140,1952,140,1920,140C1888,140,1856,140,1824,140C1792,140,1760,140,1728,140C1696,140,1664,140,1632,140C1600,140,1568,140,1536,140C1504,140,1472,140,1440,140C1408,140,1376,140,1344,140C1312,140,1280,140,1248,140C1216,140,1184,140,1152,140C1120,140,1088,140,1056,140C1024,140,992,140,960,140C928,140,896,140,864,140C832,140,800,140,768,140C736,140,704,140,672,140C640,140,608,140,576,140C544,140,512,140,480,140C448,140,416,140,384,140C352,140,320,140,288,140C256,140,224,140,192,140C160,140,128,140,96,140C64,140,32,140,16,140L0,140Z"/></svg>