<?xml version="1.0" standalone="no"?><svg xmlns="http://www.w3.org/2000/svg" viewBox="0 0 1440 320"><path fill="#0099ff" fill-opacity="1" d="M0,256L12,213.3C24,171,48,85,72,74.7C96,64,120,128,144,128C168,128,192,64,216,80C240,96,264,192,288,213.3C312,235,336,181,360,170.7C384,160,408,192,432,176C456,160,480,96,504,85.3C528,75,552,117,576,154.7C600,192,624,224,648,208C672,192,696,128,720,133.3C744,139,768,213,792,218.7C816,224,840,160,864,122.7C888,85,912,75,936,101.3C960,128,984,192,1008,192C1032,192,1056,128,1080,128C1104,128,1128,192,1152,213.3C1176,235,1200,213,1224,176C1248,139,1272,85,1296,85.3C1320,85,1344,139,1368,149.3C1392,160,1416,128,1428,112L1440,96L1440,0L1428,0C1416,0,1392,0,1368,0C1344,0,1320,0,1296,0C1272,0,1248,0,1224,0C1200,0,1176,0,1152,0C1128,0,1104,0,1080,0C1056,0,1032,0,1008,0C984,0,960,0,936,0C912,0,888,0,864,0C840,0,816,0,792,0C768,0,744,0,720,0C696,0,672,0,648,0C624,0,600,0,576,0C552,0,528,0,504,0C480,0,456,0,432,0C408,0,384,0,360,0C336,0,312,0,288,0C264,0,240,0,216,0C192,0,168,0,144,0C120,0,96,0,72,0C48,0,24,0,12,0L0,0Z"></path></svg>