<svg width="232" height="160" viewBox="0 0 232 160" fill="none" xmlns="http://www.w3.org/2000/svg">
<g id="&#240;&#159;&#166;&#134; illustration &#34;Team meeting&#34;">
<path id="Vector" opacity="0.45" d="M120.942 160C182.021 160 231.536 154.995 231.536 148.821C231.536 142.646 182.021 137.641 120.942 137.641C59.863 137.641 10.3486 142.646 10.3486 148.821C10.3486 154.995 59.863 160 120.942 160Z" fill="#E6E6E6"/>
<path id="Vector_2" d="M56.8489 43.7189C56.3689 42.151 56.3412 40.4793 56.7688 38.8963C57.1965 37.3132 58.0622 35.883 59.2664 34.77C60.4707 33.6569 61.9645 32.9064 63.5763 32.6045C65.1881 32.3026 66.8524 32.4617 68.3778 33.0635C73.73 35.1596 79.718 39.4428 84.658 47.9811C88.5079 54.633 91.2748 59.0419 93.2522 61.9556C93.7457 62.6859 94.405 63.2892 95.1761 63.7162C95.9473 64.1432 96.8085 64.3818 97.6894 64.4125C98.5704 64.4431 99.4461 64.265 100.245 63.8927C101.044 63.5203 101.744 62.9643 102.287 62.27L118.686 41.3084L124.813 45.8221C124.813 45.8221 110.979 80.1922 95.4183 78.8017C82.0028 77.6209 64.1296 67.2029 56.8489 43.7189Z" fill="#68E1FD"/>
<path id="Vector_3" opacity="0.64" d="M56.8489 43.7189C56.3689 42.151 56.3412 40.4793 56.7688 38.8963C57.1965 37.3132 58.0622 35.883 59.2664 34.77C60.4707 33.6569 61.9645 32.9064 63.5763 32.6045C65.1881 32.3026 66.8524 32.4617 68.3778 33.0635C73.73 35.1596 79.718 39.4428 84.658 47.9811C88.5079 54.633 91.2748 59.0419 93.2522 61.9556C93.7457 62.6859 94.405 63.2892 95.1761 63.7162C95.9473 64.1432 96.8085 64.3818 97.6894 64.4125C98.5704 64.4431 99.4461 64.265 100.245 63.8927C101.044 63.5203 101.744 62.9643 102.287 62.27L118.686 41.3084L124.813 45.8221C124.813 45.8221 110.979 80.1922 95.4183 78.8017C82.0028 77.6209 64.1296 67.2029 56.8489 43.7189Z" fill="white"/>
<path id="Vector_4" d="M66.8116 142.986C66.8116 142.986 67.7269 145.523 70.0187 145.718C72.3105 145.914 72.9114 148.15 70.8502 148.737C68.7889 149.324 63.4717 146.641 63.4717 146.641L63.6184 143.336L66.8116 142.986Z" fill="#68E1FD"/>
<path id="Vector_5" d="M38.0043 142.986C38.0043 142.986 37.096 145.523 34.8042 145.718C32.5124 145.914 31.9115 148.15 33.9727 148.737C36.0339 149.324 41.3512 146.641 41.3512 146.641L41.1975 143.364L38.0043 142.986Z" fill="#68E1FD"/>
<path id="Vector_6" d="M51.5662 20.3117C52.5247 22.1826 53.2296 24.1728 53.6623 26.2299C53.7328 26.7231 53.6068 27.2242 53.3114 27.6254C53.0161 28.0266 52.5751 28.2957 52.0832 28.375C51.2923 28.5347 50.472 28.4627 49.7209 28.1678C48.9699 27.8728 48.3199 27.3673 47.849 26.712L45.5432 24.0848C45.1371 23.512 44.9189 22.8271 44.9189 22.1249C44.9189 21.4227 45.1371 20.7379 45.5432 20.165C46.8987 17.9361 50.6089 18.2156 51.5662 20.3117Z" fill="#F4A28C"/>
<path id="Vector_7" d="M46.6676 23.1136L46.1226 35.488L52.963 35.2993L50.6153 26.3697L46.6676 23.1136Z" fill="#F4A28C"/>
<path id="Vector_8" d="M52.5513 22.4847L54.0745 23.435C54.1611 23.489 54.2326 23.5641 54.2822 23.6534C54.3317 23.7426 54.3577 23.843 54.3577 23.9451C54.3577 24.0471 54.3317 24.1475 54.2822 24.2368C54.2326 24.326 54.1611 24.4012 54.0745 24.4551L52.8587 25.2796L52.5513 22.4847Z" fill="#F4A28C"/>
<path id="Vector_9" opacity="0.31" d="M51.1675 28.4169C50.3003 28.3057 49.4844 27.9439 48.8198 27.3759C48.8198 27.3759 49.1762 29.6118 51.9012 31.5682L51.1675 28.4169Z" fill="#CE8172"/>
<path id="Vector_10" d="M62.3889 31.8687C51.152 32.0647 40.0594 34.4351 29.7237 38.8489C28.1379 39.5175 26.7062 40.5044 25.5171 41.7486C24.3281 42.9928 23.4071 44.4678 22.811 46.0823C22.215 47.6968 21.9567 49.4165 22.052 51.1348C22.1474 52.8532 22.5944 54.5337 23.3654 56.0724L41.1338 91.5045L74.0855 89.562C74.0855 89.562 80.0805 69.6485 78.8717 47.1217C78.6338 42.9399 76.783 39.0135 73.7087 36.1686C70.6345 33.3237 66.5766 31.7823 62.3889 31.8687Z" fill="#68E1FD"/>
<path id="Vector_11" d="M46.4089 27.6344L48.7706 26.3627L49.0082 25.112C49.3348 24.6189 49.509 24.0405 49.509 23.4491C49.509 22.8576 49.3348 22.2792 49.0082 21.7861C49.0082 21.7861 53.5359 19.5851 52.5018 17.6916C51.4677 15.7981 48.0998 13.2757 44.8159 15.6723C41.5319 18.0689 39.9388 22.4429 46.4089 27.6344Z" fill="#24285B"/>
<path id="Vector_12" d="M49.0782 24.8395C49.0782 24.8395 48.4983 23.505 47.534 24.022C46.5698 24.5391 47.3943 26.4745 48.8407 26.1182L49.0782 24.8395Z" fill="#F4A28C"/>
<path id="Vector_13" d="M44.0825 34.1465C48.1099 33.0018 52.2592 32.3404 56.4429 32.1761C56.4429 32.1761 62.2073 55.185 57.6656 73.7221C57.6726 73.7221 51.2095 50.3708 44.0825 34.1465Z" fill="white"/>
<path id="Vector_14" opacity="0.09" d="M31.1979 44.8439C31.1979 44.8439 42.5451 45.7871 41.0988 53.5569C39.6524 61.3267 44.5924 82.8193 47.9253 84.6081L58.7065 90.4424L41.1477 91.4765L35.3762 79.9755L24.4482 58.3012L31.1979 44.8439Z" fill="black"/>
<path id="Vector_15" d="M44.0828 34.1464C44.0828 34.1464 43.8592 31.3516 45.8435 31.2607C46.9299 31.1853 48.0213 31.2796 49.0786 31.5402C49.0786 31.5402 54.885 26.9915 56.4431 32.176C56.4431 32.176 48.1353 33.0984 44.0828 34.1464Z" fill="#68E1FD"/>
<path id="Vector_16" opacity="0.77" d="M44.0828 34.1464C44.0828 34.1464 43.8592 31.3516 45.8435 31.2607C46.9299 31.1853 48.0213 31.2796 49.0786 31.5402C49.0786 31.5402 54.885 26.9915 56.4431 32.176C56.4431 32.176 48.1353 33.0984 44.0828 34.1464Z" fill="white"/>
<path id="Vector_17" d="M48.1347 33.2801C48.1347 33.2801 47.4779 31.0931 48.8334 30.8206C50.1889 30.5481 51.4606 29.6607 51.754 32.4626C52.0475 35.2645 49.2876 35.5579 48.1347 33.2801Z" fill="#24285B"/>
<path id="Vector_18" d="M49.0498 34.3631C49.0498 34.3631 53.4098 49.7908 53.4517 59.7127L57.6441 73.6871C58.853 68.7038 59.4375 63.5895 59.3839 58.4619C59.3839 58.4619 54.8841 38.1641 51.698 33.4198L49.0498 34.3631Z" fill="#24285B"/>
<path id="Vector_19" d="M118.685 41.3223L119.816 39.303L125.483 43.3416L124.1 45.312L118.685 41.3223Z" fill="white"/>
<path id="Vector_20" d="M120.635 40.0087C120.635 40.0087 122.556 32.6442 124.645 31.8546C126.735 31.0651 124.981 35.6207 124.981 35.6207C124.981 35.6207 131.081 39.0095 124.981 43.104L120.635 40.0087Z" fill="#F4A28C"/>
<path id="Vector_21" d="M36.0894 143.783L41.1481 91.5045L74.0858 89.562L68.496 143.79H62.1516C62.1516 143.79 63.7377 109.399 58.7209 101.524V101.489C58.4471 101.081 58.0726 100.749 57.6336 100.527C57.1946 100.306 56.7059 100.2 56.2145 100.222C55.7231 100.244 55.2456 100.392 54.8279 100.652C54.4102 100.912 54.0665 101.275 53.8299 101.706C46.9405 114.548 42.7971 143.79 42.7971 143.79L36.0894 143.783Z" fill="#24285B"/>
<path id="Vector_22" d="M25.6853 41.6019C25.6853 41.6019 -2.53605 67.2589 0.726978 74.8121C3.99 82.3652 33.5668 95.4243 33.5668 95.4243L37.0604 91.0364C37.0604 91.0364 20.8362 75.6645 20.7313 73.7221C20.6265 71.7796 26.8591 69.2992 32.2672 62.4657C37.6753 55.6322 42.3707 39.4219 25.6853 41.6019Z" fill="#68E1FD"/>
<path id="Vector_23" opacity="0.64" d="M25.6853 41.6019C25.6853 41.6019 -2.53605 67.2589 0.726978 74.8121C3.99 82.3652 33.5668 95.4243 33.5668 95.4243L37.0604 91.0364C37.0604 91.0364 20.8362 75.6645 20.7313 73.7221C20.6265 71.7796 26.8591 69.2992 32.2672 62.4657C37.6753 55.6322 42.3707 39.4219 25.6853 41.6019Z" fill="white"/>
<g id="Group">
<path id="Vector_24" d="M37.0532 91.0364C37.0532 91.0364 40.7913 93.6636 41.0219 94.8444C41.2525 96.0252 40.7145 100.665 39.6245 101.049C38.5345 101.433 35.6418 100.511 36.2566 99.8961L37.2488 98.904C37.2488 98.904 33.853 97.2201 33.5596 95.4104L37.0532 91.0364Z" fill="#F4A28C"/>
<path id="Vector_25" d="M147.032 33.853C147.032 33.853 139.919 33.4967 138.095 38.227C136.272 42.9574 138.85 65.6728 136.328 67.1471C133.805 68.6214 116.309 61.0333 116.309 61.0333C115.214 60.124 114.019 59.3433 112.746 58.7065C111.488 58.2244 112.592 59.6987 112.641 60.1529C112.641 60.1529 107.75 57.7423 107.617 60.4254C107.484 63.1085 133.379 76.9431 140.883 74.854C148.388 72.7648 146.99 34.7474 146.99 34.7474" fill="#F4A28C"/>
<path id="Vector_26" d="M165.283 102.824L171.02 144.929L168.141 144.803L154.579 102.37L165.283 102.824Z" fill="#F4A28C"/>
<path id="Vector_27" d="M151.713 102.474L144.642 143.797L141.75 143.671L141.896 101.825L151.713 102.474Z" fill="#F4A28C"/>
</g>
<path id="Vector_28" d="M171.019 144.929C171.019 144.929 172.535 147.025 174.582 147.025C176.63 147.025 176.811 149.917 173.527 149.477C172.507 149.346 171.5 149.129 170.516 148.827C169.601 148.58 168.636 148.58 167.721 148.827C167.544 148.862 167.36 148.841 167.195 148.767C167.03 148.693 166.892 148.57 166.799 148.415C165.911 147.276 168.315 144.845 168.315 144.845L171.019 144.929Z" fill="#68E1FD"/>
<path id="Vector_29" d="M141.96 143.678C141.96 143.678 140.269 145.641 138.228 145.453C136.188 145.264 135.762 148.15 139.067 147.989C140.096 147.945 141.12 147.814 142.127 147.598C143.062 147.42 144.026 147.495 144.922 147.814C145.097 147.863 145.282 147.857 145.453 147.797C145.625 147.737 145.773 147.626 145.879 147.479C146.865 146.424 144.678 143.797 144.678 143.797L141.96 143.678Z" fill="#68E1FD"/>
<path id="Vector_30" d="M162.474 69.2712L171.558 114.667L135.832 115.45L141.128 69.0476L162.474 69.2712Z" fill="#24285B"/>
<path id="Vector_31" d="M146.955 19.2077C146.955 19.2077 146.333 23.4979 146.892 26.4046C146.947 26.6864 147.056 26.9547 147.215 27.194C147.373 27.4332 147.578 27.6387 147.816 27.7985C148.055 27.9583 148.322 28.0693 148.604 28.1251C148.885 28.1809 149.175 28.1803 149.457 28.1234C150.369 27.9965 151.227 27.6095 151.925 27.0085C152.624 26.4076 153.135 25.6182 153.397 24.7346L154.914 21.0244C155.139 20.2509 155.118 19.4264 154.854 18.6653C154.589 17.9042 154.095 17.244 153.439 16.7762C151.12 14.8757 147.207 16.5736 146.955 19.2077Z" fill="#F4A28C"/>
<path id="Vector_32" d="M154.579 19.9695L154.6 34.1745L149.324 33.8041L150.764 23.9941L154.579 19.9695Z" fill="#F4A28C"/>
<path id="Vector_33" d="M146.704 21.9259L145.397 23.526C145.325 23.617 145.277 23.7247 145.256 23.8392C145.236 23.9537 145.245 24.0715 145.281 24.1818C145.318 24.2922 145.382 24.3916 145.467 24.4711C145.552 24.5505 145.655 24.6076 145.768 24.6369L147.41 25.0492L146.704 21.9259Z" fill="#F4A28C"/>
<path id="Vector_34" d="M145.446 19.2848C148.751 20.2381 151.679 22.1906 153.83 24.8745L154.487 25.699C154.487 25.699 158.561 20.3887 157.282 17.0628C156.003 13.7369 147.542 10.1944 145.446 19.2848Z" fill="#24285B"/>
<path id="Vector_35" d="M157.624 16.413C159.152 16.413 160.391 15.1742 160.391 13.6461C160.391 12.1179 159.152 10.8792 157.624 10.8792C156.096 10.8792 154.857 12.1179 154.857 13.6461C154.857 15.1742 156.096 16.413 157.624 16.413Z" fill="#24285B"/>
<path id="Vector_36" d="M151.344 23.1835C151.344 23.1835 151.47 21.5205 152.741 21.7232C154.013 21.9258 153.817 24.3294 152.105 24.4552L151.344 23.1835Z" fill="#F4A28C"/>
<path id="Vector_37" d="M147.158 30.7926L156.989 31.2118L156.892 34.2722C156.892 34.2722 173.423 34.6705 171.802 45.3539C170.181 56.0374 162.481 69.2991 162.481 69.2991L143.316 69.1663C139.779 63.367 137.059 57.1082 135.231 50.5664C132.52 40.407 147.068 33.853 147.068 33.853L147.158 30.7926Z" fill="#68E1FD"/>
<path id="Vector_38" opacity="0.09" d="M165.835 40.9451C165.835 40.9451 158.764 42.7757 160.112 52.432C161.461 62.0884 159.923 65.3304 148.933 65.9593L150.644 69.4529L162.481 69.2991C162.481 69.2991 165.471 63.9819 166.219 62.0115C166.967 60.0411 165.835 40.9451 165.835 40.9451Z" fill="black"/>
<path id="Vector_39" d="M131.893 51.1128L149.767 50.2636L150.912 74.3702L133.038 75.2194L131.893 51.1128Z" fill="#FFD200"/>
<path id="Vector_40" d="M152.978 71.9193C152.978 71.9193 151.427 68.1462 147.836 68.5235C144.244 68.9008 146.487 75.6155 151.246 75.9859C156.004 76.3562 165.919 88.3602 172.27 82.6726C178.621 76.985 179.041 45.892 171.103 40.5747C163.166 35.2574 162.858 51.5027 165.919 61.0612C168.979 70.6197 171.166 82.1346 152.978 71.9193Z" fill="#F4A28C"/>
<path id="Vector_41" d="M178.552 74.0294C178.552 74.0294 178.517 74.3997 178.426 75.0495C177.909 78.9344 175.568 92.6433 168.218 94.1735C159.644 95.9553 150.442 91.9586 150.442 91.9586L148.64 96.0741C148.64 96.0741 162.733 110.405 173.144 105.947C183.555 101.489 187.635 89.562 187.635 89.562L178.552 74.0294Z" fill="#68E1FD"/>
<path id="Vector_42" opacity="0.46" d="M178.552 74.0294C178.552 74.0294 178.517 74.3997 178.426 75.0495C177.909 78.9344 175.568 92.6433 168.218 94.1735C159.644 95.9553 150.442 91.9586 150.442 91.9586L148.64 96.0741C148.64 96.0741 162.733 110.405 173.144 105.947C183.555 101.489 187.635 89.562 187.635 89.562L178.552 74.0294Z" fill="white"/>
<path id="Vector_43" d="M190.94 46.0527C190.057 47.7071 189.399 49.4718 188.984 51.3001C188.913 51.742 189.02 52.1938 189.282 52.5566C189.544 52.9193 189.939 53.1635 190.381 53.2356C191.081 53.3901 191.81 53.3405 192.483 53.0928C193.155 52.8451 193.743 52.4097 194.175 51.8381L196.271 49.5254C196.641 49.02 196.844 48.4123 196.853 47.7864C196.861 47.1604 196.675 46.5473 196.32 46.0318C195.132 43.9985 191.827 44.1941 190.94 46.0527Z" fill="#F4A28C"/>
<path id="Vector_44" d="M194.734 49.9305L197.382 60.6559L191.366 61.69L191.841 53.6757L194.734 49.9305Z" fill="#F4A28C"/>
<path id="Vector_45" d="M190.031 47.9812L188.634 48.7987C188.557 48.8481 188.495 48.9159 188.451 48.9958C188.408 49.0758 188.385 49.1654 188.385 49.2564C188.385 49.3474 188.408 49.4369 188.451 49.5169C188.495 49.5968 188.557 49.6646 188.634 49.714L189.724 50.4128L190.031 47.9812Z" fill="#F4A28C"/>
<path id="Vector_46" opacity="0.31" d="M191.827 53.2285C191.827 53.2285 194.035 52.7534 194.769 52.0547C194.769 52.0547 194.559 57.0785 191.61 57.7353L191.827 53.2285Z" fill="#CE8172"/>
<path id="Vector_47" d="M193.539 49.7768C193.539 49.7768 194.07 48.589 194.936 49.0781C195.802 49.5672 195.027 51.2651 193.741 50.9018L193.539 49.7768Z" fill="#F4A28C"/>
<path id="Vector_48" d="M197.78 49.5603C197.626 49.5603 197.452 49.5603 197.291 49.5603C196.662 49.6023 196.788 50.3778 196.047 50.3499C195.922 50.3291 195.796 50.3151 195.67 50.308C195.53 50.324 195.396 50.3696 195.275 50.442C195.155 50.5143 195.051 50.6115 194.971 50.7272C194.82 50.9558 194.631 51.1567 194.412 51.3211C194.302 51.3838 194.179 51.4224 194.053 51.4345C193.927 51.4465 193.799 51.4317 193.679 51.391C193.596 51.3666 193.523 51.3179 193.469 51.2512C193.371 51.0975 193.469 50.8949 193.546 50.7272C193.679 50.464 193.791 50.1906 193.881 49.9097C193.958 49.6651 194.021 49.4206 194.084 49.211C194.147 49.0014 194.412 48.3865 194.294 48.1908C194.175 47.9952 193.825 47.9463 193.665 47.8135C193.504 47.6808 193.364 47.4362 193.106 47.2965C192.526 46.9751 191.82 46.9541 191.226 46.6537C190.992 46.5505 190.798 46.3739 190.674 46.1506C190.616 46.0397 190.592 45.914 190.606 45.7895C190.62 45.665 190.67 45.5474 190.751 45.4519C190.975 45.2283 191.45 45.1304 191.373 44.823C191.373 44.6972 191.233 44.6134 191.128 44.5365C190.849 44.3427 190.616 44.0879 190.449 43.7914C190.282 43.4949 190.185 43.1644 190.164 42.8247C190.152 42.484 190.258 42.1495 190.464 41.8781C190.67 41.6068 190.964 41.4153 191.296 41.3364C191.701 41.2665 192.232 41.3364 192.421 40.98C192.484 40.7815 192.499 40.5705 192.463 40.3652C192.457 40.1045 192.529 39.848 192.669 39.6283C192.81 39.4087 193.012 39.2357 193.251 39.1316C193.49 39.0274 193.755 38.9968 194.012 39.0435C194.268 39.0902 194.505 39.2122 194.692 39.3939C194.866 39.5686 195.013 39.7992 195.251 39.8411C195.488 39.883 195.824 39.5756 196.096 39.387C196.303 39.2546 196.541 39.1791 196.787 39.1681C197.032 39.157 197.276 39.2108 197.494 39.3241C197.931 39.5629 198.262 39.9568 198.423 40.4281C198.469 40.613 198.552 40.7865 198.668 40.9381C198.794 41.0518 198.948 41.1291 199.115 41.1617C199.813 41.3364 200.68 41.1617 201.211 41.6159C201.427 41.8085 201.564 42.0746 201.595 42.3626C201.626 42.6506 201.549 42.9398 201.379 43.174C201.197 43.3976 200.924 43.5863 200.917 43.8727C200.925 44.0324 200.981 44.1859 201.078 44.3129C201.434 44.8859 201.847 45.5497 201.609 46.1785C201.372 46.8074 200.547 47.3524 200.079 47.7856C199.611 48.2188 198.681 48.0581 198.346 48.631C198.199 48.8896 198.241 49.2529 198.025 49.4555C197.953 49.5094 197.869 49.5453 197.78 49.5603Z" fill="#24285B"/>
<path id="Vector_49" d="M195.719 48.9174C195.719 48.9174 197.528 48.3374 197.815 49.7418C198.101 51.1463 196.117 51.7332 195.076 50.6921C195.497 50.1976 195.726 49.5672 195.719 48.9174Z" fill="#F4A28C"/>
<path id="Vector_50" d="M181.283 120.886H220.342V148.8H181.283V120.886Z" fill="#E6E6E6"/>
<path id="Vector_51" opacity="0.08" d="M191.596 148.799L189.716 124.219L181.884 125.413L179.55 134.839L181.283 148.799H191.596Z" fill="black"/>
<path id="Vector_52" d="M190.611 145.571C190.611 145.571 189.78 147.898 187.676 148.073C185.573 148.248 185.021 150.309 186.915 150.868C188.808 151.427 193.678 148.974 193.678 148.974L193.539 145.942L190.611 145.571Z" fill="#68E1FD"/>
<path id="Vector_53" d="M190.856 61.5643L196.865 60.5302C196.865 60.5302 216.869 60.5302 220.37 67.4126C223.87 74.295 223.165 99.7633 211.566 120.69L187.879 121.389C187.879 121.389 189.193 106.017 184.777 97.6322C180.361 89.2476 166.673 71.4721 190.856 61.5643Z" fill="#68E1FD"/>
<path id="Vector_54" d="M211.566 120.69L199.981 118.943C198.308 118.69 196.598 118.823 194.984 119.333C193.37 119.842 191.894 120.715 190.669 121.883C189.445 123.051 188.503 124.484 187.918 126.072C187.333 127.66 187.119 129.361 187.292 131.045L188.809 145.767H194.489L194 131.988C193.971 131.218 194.113 130.45 194.416 129.741C194.719 129.031 195.176 128.398 195.753 127.887C196.331 127.375 197.015 126.999 197.755 126.784C198.496 126.569 199.276 126.521 200.037 126.643C204.97 127.433 211.084 127.09 211.566 120.69Z" fill="#24285B"/>
<path id="Vector_55" d="M178.817 145.571C178.817 145.571 177.978 147.898 175.882 148.073C173.786 148.248 173.227 150.309 175.114 150.868C177 151.427 181.884 148.974 181.884 148.974L181.744 145.942L178.817 145.571Z" fill="#68E1FD"/>
<path id="Vector_56" opacity="0.08" d="M209.539 69.8651C209.539 69.8651 202.971 75.6226 204.285 81.9809C204.501 83.008 204.725 84.2518 204.941 85.6143C205.796 90.8853 205.476 96.28 204.005 101.413C202.534 106.546 199.948 111.292 196.431 115.31L192.288 120.047L211.565 120.69L213.214 117.462L222.214 102.509L209.539 69.8651Z" fill="black"/>
<path id="Vector_57" d="M199.771 120.69L188.186 118.943C186.513 118.69 184.803 118.823 183.189 119.333C181.575 119.842 180.099 120.715 178.875 121.883C177.65 123.051 176.709 124.484 176.123 126.072C175.538 127.66 175.324 129.361 175.498 131.045L177.007 145.767H182.694L182.205 131.988C182.176 131.218 182.318 130.45 182.621 129.741C182.924 129.031 183.381 128.398 183.958 127.887C184.536 127.375 185.22 126.999 185.961 126.784C186.701 126.569 187.481 126.521 188.242 126.643C193.175 127.433 199.289 127.09 199.771 120.69Z" fill="#24285B"/>
<path id="Vector_58" d="M220.705 68.0414C225.093 74.2181 228.999 87.8571 225.596 107.079C225.089 109.92 223.642 112.508 221.488 114.428C219.334 116.349 216.598 117.491 213.718 117.672L195.614 118.817V112.913L209.372 110.922C210.125 110.814 210.845 110.544 211.484 110.132C212.123 109.719 212.664 109.173 213.072 108.531C213.48 107.889 213.743 107.166 213.845 106.413C213.947 105.659 213.885 104.892 213.662 104.165C211.245 96.1859 207.486 81.7293 208.457 71.4302C209.051 65.1697 217.065 62.9198 220.705 68.0414Z" fill="#68E1FD"/>
<path id="Vector_59" opacity="0.46" d="M220.705 68.0414C225.093 74.2181 228.999 87.8571 225.596 107.079C225.089 109.92 223.642 112.508 221.488 114.428C219.334 116.349 216.598 117.491 213.718 117.672L195.614 118.817V112.913L209.372 110.922C210.125 110.814 210.845 110.544 211.484 110.132C212.123 109.719 212.664 109.173 213.072 108.531C213.48 107.889 213.743 107.166 213.845 106.413C213.947 105.659 213.885 104.892 213.662 104.165C211.245 96.1859 207.486 81.7293 208.457 71.4302C209.051 65.1697 217.065 62.9198 220.705 68.0414Z" fill="white"/>
<path id="Vector_60" d="M195.614 114.346C195.614 114.346 188.27 114.157 189.325 117.986C190.38 121.815 195.614 118.817 195.614 118.817V114.346Z" fill="#F4A28C"/>
<path id="Vector_61" d="M171.173 120.194L168.21 103.432H189.241L191.065 117.72L200.707 117.86V120.194H171.173Z" fill="#FFD200"/>
<path id="Vector_62" d="M179.551 113.57C180.712 113.57 181.654 112.628 181.654 111.467C181.654 110.305 180.712 109.364 179.551 109.364C178.389 109.364 177.448 110.305 177.448 111.467C177.448 112.628 178.389 113.57 179.551 113.57Z" fill="white"/>
<path id="Vector_63" d="M150.435 91.9586C150.435 91.9586 149.184 88.8633 148.632 89.3105C148.477 89.4429 148.37 89.6227 148.327 89.8222C148.284 90.0218 148.308 90.2299 148.395 90.4145C148.395 90.4145 147.102 88.3183 146.48 88.2414C145.858 88.1646 144.692 89.9323 144.782 91.3158C144.873 92.6993 148.632 96.0741 148.632 96.0741L150.435 91.9586Z" fill="#F4A28C"/>
<path id="Vector_64" opacity="0.58" d="M90.4428 140.946C90.4428 140.946 84.6783 139.367 83.4556 134.008C83.4556 134.008 92.3782 132.205 92.6368 141.414L90.4428 140.946Z" fill="#68E1FD"/>
<path id="Vector_65" opacity="0.73" d="M91.1486 140.373C91.1486 140.373 87.124 134.008 90.6665 128.062C90.6665 128.062 97.4511 132.373 94.4326 140.387L91.1486 140.373Z" fill="#68E1FD"/>
<path id="Vector_66" d="M92.1826 140.373C92.1826 140.373 94.2788 133.658 100.735 132.387C100.735 132.387 101.944 136.747 96.5776 140.394L92.1826 140.373Z" fill="#68E1FD"/>
<path id="Vector_67" d="M88.0039 140.226L89.1708 148.213L96.5283 148.248L97.6113 140.261L88.0039 140.226Z" fill="#24285B"/>
<path id="Vector_68" d="M190.695 7.48328H186.097C184.395 7.48328 182.709 7.81876 181.136 8.47056C179.563 9.12236 178.134 10.0777 176.93 11.282C175.726 12.4863 174.772 13.916 174.121 15.4893C173.47 17.0627 173.135 18.7488 173.136 20.4515C173.137 23.0249 173.904 25.5398 175.338 27.6762C176.773 29.8126 178.811 31.4738 181.192 32.4486L183.778 39.5266L184.784 33.3429C185.22 33.3908 185.659 33.4141 186.097 33.4128H190.695C194.132 33.4109 197.428 32.0448 199.858 29.6145C202.288 27.1842 203.654 23.8885 203.656 20.4515C203.656 17.0133 202.291 13.7159 199.861 11.2841C197.43 8.85224 194.133 7.48513 190.695 7.48328Z" fill="#F2F2F2"/>
<path id="Vector_69" d="M141.107 14.9527C141.102 12.5009 140.124 10.1515 138.388 8.41978C136.653 6.68809 134.301 5.71557 131.849 5.71558H119.859C118.643 5.71558 117.438 5.95527 116.315 6.42097C115.191 6.88667 114.17 7.56924 113.31 8.42966C112.45 9.29009 111.769 10.3115 111.304 11.4356C110.839 12.5596 110.6 13.7642 110.601 14.9806C110.608 17.4312 111.587 19.7788 113.323 21.509C115.058 23.2392 117.409 24.2107 119.859 24.2107H131.863C132.824 24.2093 133.779 24.0584 134.693 23.7635L141.121 26.6213L138.368 21.5346C139.239 20.6741 139.929 19.649 140.399 18.519C140.87 17.3889 141.11 16.1766 141.107 14.9527Z" fill="#F2F2F2"/>
<path id="Vector_70" d="M89.3948 0H74.596C71.5661 0 68.6603 1.2036 66.5179 3.34604C64.3755 5.48847 63.1719 8.39423 63.1719 11.4241C63.1727 13.1972 63.5867 14.9458 64.3812 16.531C65.1756 18.1162 66.3285 19.4944 67.7485 20.5564L64.4925 27.0125L71.7592 22.4848C72.6856 22.7261 73.6386 22.8505 74.596 22.8551H89.3948C92.4235 22.8533 95.3275 21.6489 97.4684 19.5066C99.6093 17.3644 100.812 14.4597 100.812 11.4311C100.813 9.93084 100.518 8.44511 99.945 7.05873C99.3717 5.67234 98.531 4.41245 97.4708 3.35098C96.4107 2.2895 95.1518 1.44724 93.7661 0.872281C92.3804 0.29732 90.8951 0.000917292 89.3948 0Z" fill="#F2F2F2"/>
</g>
</svg>
