<svg width="155" height="160" viewBox="0 0 155 160" fill="none" xmlns="http://www.w3.org/2000/svg">
<g id="&#240;&#159;&#166;&#134; illustration &#34;Science discovery&#34;">
<path id="Vector" d="M77.0902 159.102C87.5182 159.102 95.9718 150.648 95.9718 140.22C95.9718 129.792 87.5182 121.338 77.0902 121.338C66.6621 121.338 58.2085 129.792 58.2085 140.22C58.2085 150.648 66.6621 159.102 77.0902 159.102Z" fill="#093F68"/>
<path id="Vector_2" d="M77.0901 160C73.1815 160 69.3608 158.841 66.1109 156.67C62.8611 154.498 60.3282 151.412 58.8324 147.801C57.3367 144.19 56.9453 140.216 57.7079 136.383C58.4704 132.549 60.3525 129.028 63.1163 126.264C65.88 123.5 69.4013 121.618 73.2347 120.856C77.0682 120.093 81.0416 120.485 84.6527 121.98C88.2637 123.476 91.3501 126.009 93.5216 129.259C95.693 132.509 96.8521 136.329 96.8521 140.238C96.8521 145.479 94.77 150.506 91.0639 154.212C87.3578 157.918 82.3313 160 77.0901 160ZM77.0901 122.273C73.5369 122.273 70.0634 123.326 67.109 125.3C64.1546 127.274 61.852 130.08 60.4922 133.363C59.1325 136.646 58.7767 140.258 59.4699 143.743C60.1631 147.228 61.8741 150.429 64.3866 152.942C66.8991 155.454 70.1003 157.165 73.5852 157.858C77.0702 158.551 80.6824 158.196 83.9652 156.836C87.2479 155.476 90.0537 153.173 92.0278 150.219C94.0019 147.265 95.0555 143.791 95.0555 140.238C95.0626 137.874 94.6031 135.532 93.7035 133.346C92.8038 131.161 91.4816 129.174 89.8127 127.5C88.1437 125.826 86.1608 124.498 83.9776 123.591C81.7945 122.685 79.4539 122.219 77.0901 122.219V122.273Z" fill="#093F68"/>
<path id="Vector_3" d="M120.126 61.8012C120.118 55.0697 118.511 48.4366 115.435 42.4488C112.359 36.4611 107.904 31.2904 102.437 27.3632C96.9698 23.436 90.6473 20.865 83.991 19.8621C77.3346 18.8592 70.5352 19.4532 64.1537 21.5952C57.7721 23.7371 51.9912 27.3656 47.2879 32.1814C42.5845 36.9971 39.0935 42.862 37.1028 49.2924C35.1122 55.7228 34.6788 62.5343 35.8386 69.1651C36.9983 75.7959 39.718 82.056 43.7731 87.4289C51.9992 98.2527 56.457 111.471 56.4657 125.066H98.7742C98.6433 111.635 102.992 98.5431 111.134 87.86C116.963 80.4245 120.129 71.2489 120.126 61.8012Z" fill="#68E1FD"/>
<path id="Vector_4" d="M98.8193 125.965H56.5107C56.2725 125.965 56.044 125.87 55.8755 125.702C55.7071 125.533 55.6124 125.305 55.6124 125.066C55.5743 111.671 51.1826 98.6501 43.0995 87.9677C38.2136 81.5155 35.2311 73.8245 34.4896 65.7651C33.748 57.7057 35.2769 49.5996 38.9033 42.3641C42.5297 35.1286 48.1089 29.0524 55.0094 24.8233C61.91 20.5941 69.8565 18.3807 77.9498 18.4335C86.0431 18.4864 93.96 20.8034 100.805 25.1223C107.649 29.4412 113.149 35.5897 116.68 42.8719C120.212 50.1542 121.635 58.2795 120.788 66.3286C119.942 74.3776 116.859 82.029 111.889 88.4169C103.885 98.9481 99.6037 111.839 99.7176 125.066C99.7176 125.305 99.6229 125.533 99.4545 125.702C99.286 125.87 99.0575 125.965 98.8193 125.965ZM57.409 124.168H97.921C98.0103 110.853 102.424 97.9277 110.497 87.339C116.201 80.0618 119.287 71.0745 119.255 61.828C119.246 56.1209 118.066 50.4762 115.789 45.2431C113.512 40.01 110.185 35.2997 106.014 31.4036C98.4063 24.3021 88.4107 20.3134 78.0036 20.2258C67.5965 20.1383 57.5353 23.9583 49.8088 30.9308C42.0822 37.9033 37.2527 47.5209 36.2749 57.8823C35.297 68.2437 38.2421 78.5949 44.5278 86.8898C52.6674 97.6348 57.1785 110.69 57.409 124.168Z" fill="#093F68"/>
<path id="Vector_5" d="M97.8763 136.861H56.3044C53.5857 136.861 51.3818 139.064 51.3818 141.783V143.687C51.3818 146.406 53.5857 148.61 56.3044 148.61H97.8763C100.595 148.61 102.799 146.406 102.799 143.687V141.783C102.799 139.064 100.595 136.861 97.8763 136.861Z" fill="white"/>
<path id="Vector_6" d="M97.8762 149.508H56.3042C54.7611 149.506 53.282 148.892 52.1909 147.801C51.0998 146.71 50.4858 145.231 50.4834 143.688V141.783C50.4834 140.239 51.0967 138.759 52.1883 137.667C53.2799 136.576 54.7604 135.962 56.3042 135.962H97.8762C99.4199 135.962 100.9 136.576 101.992 137.667C103.084 138.759 103.697 140.239 103.697 141.783V143.688C103.695 145.231 103.081 146.71 101.989 147.801C100.898 148.892 99.4192 149.506 97.8762 149.508ZM56.3042 137.759C55.2376 137.761 54.2154 138.186 53.4612 138.94C52.7071 139.694 52.2823 140.717 52.2799 141.783V143.688C52.2823 144.754 52.7071 145.776 53.4612 146.53C54.2154 147.285 55.2376 147.709 56.3042 147.712H97.8762C98.4058 147.713 98.9305 147.61 99.4203 147.408C99.9101 147.207 100.355 146.911 100.731 146.537C101.106 146.163 101.404 145.719 101.608 145.23C101.812 144.741 101.917 144.217 101.918 143.688V141.783C101.916 140.717 101.491 139.694 100.737 138.94C99.9829 138.186 98.9607 137.761 97.8941 137.759H56.3042Z" fill="#093F68"/>
<path id="Vector_7" d="M97.8763 125.111H56.3044C53.5857 125.111 51.3818 127.315 51.3818 130.034V131.938C51.3818 134.657 53.5857 136.86 56.3044 136.86H97.8763C100.595 136.86 102.799 134.657 102.799 131.938V130.034C102.799 127.315 100.595 125.111 97.8763 125.111Z" fill="white"/>
<path id="Vector_8" d="M97.8762 137.759H56.3042C54.7611 137.756 53.282 137.142 52.1909 136.051C51.0998 134.96 50.4858 133.481 50.4834 131.938V130.034C50.4858 128.491 51.0998 127.011 52.1909 125.92C53.282 124.829 54.7611 124.215 56.3042 124.213H97.8762C98.6418 124.212 99.4001 124.361 100.108 124.653C100.816 124.945 101.459 125.374 102.001 125.914C102.543 126.455 102.974 127.097 103.268 127.803C103.562 128.51 103.714 129.268 103.715 130.034V131.938C103.714 132.704 103.562 133.461 103.268 134.168C102.974 134.875 102.543 135.517 102.001 136.058C101.459 136.598 100.816 137.027 100.108 137.319C99.4001 137.61 98.6418 137.76 97.8762 137.759ZM56.3042 126.009C55.2376 126.012 54.2154 126.437 53.4612 127.191C52.7071 127.945 52.2823 128.967 52.2799 130.034V131.938C52.2823 133.005 52.7071 134.027 53.4612 134.781C54.2154 135.535 55.2376 135.96 56.3042 135.962H97.8762C98.9427 135.96 99.9649 135.535 100.719 134.781C101.473 134.027 101.898 133.005 101.9 131.938V130.034C101.898 128.967 101.473 127.945 100.719 127.191C99.9649 126.437 98.9427 126.012 97.8762 126.009H56.3042Z" fill="#093F68"/>
<path id="Vector_9" d="M97.8763 113.362H56.3044C53.5857 113.362 51.3818 115.566 51.3818 118.284V120.189C51.3818 122.907 53.5857 125.111 56.3044 125.111H97.8763C100.595 125.111 102.799 122.907 102.799 120.189V118.284C102.799 115.566 100.595 113.362 97.8763 113.362Z" fill="white"/>
<path id="Vector_10" d="M97.8762 126.01H56.3042C54.762 126.01 53.2828 125.398 52.1914 124.308C51.1001 123.218 50.4858 121.74 50.4834 120.198V118.284C50.4858 116.741 51.0998 115.262 52.1909 114.171C53.282 113.08 54.7611 112.466 56.3042 112.464H97.8762C99.4192 112.466 100.898 113.08 101.989 114.171C103.081 115.262 103.695 116.741 103.697 118.284V120.198C103.695 121.74 103.08 123.218 101.989 124.308C100.898 125.398 99.4184 126.01 97.8762 126.01ZM56.3042 114.26C55.2376 114.263 54.2154 114.687 53.4612 115.441C52.7071 116.196 52.2823 117.218 52.2799 118.284V120.198C52.2823 121.263 52.7073 122.285 53.4618 123.038C54.2162 123.79 55.2384 124.213 56.3042 124.213H97.8762C98.9419 124.213 99.9641 123.79 100.719 123.038C101.473 122.285 101.898 121.263 101.9 120.198V118.284C101.898 117.218 101.473 116.196 100.719 115.441C99.9649 114.687 98.9427 114.263 97.8762 114.26H56.3042Z" fill="#093F68"/>
<path id="Vector_11" d="M66.4004 110.595C66.189 110.599 65.983 110.528 65.8187 110.395C65.6544 110.262 65.5423 110.075 65.5021 109.868L55.2978 55.8097C55.263 55.6252 55.2869 55.4344 55.3661 55.2642C55.4453 55.094 55.5759 54.9529 55.7394 54.8608C55.903 54.7686 56.0913 54.73 56.2779 54.7503C56.4645 54.7707 56.6401 54.849 56.7799 54.9743L69.9486 66.6518L77.7276 53.4742C77.8092 53.3359 77.9264 53.222 78.067 53.1444C78.2075 53.0668 78.3663 53.0283 78.5268 53.0328C78.6873 53.0374 78.8437 53.0849 78.9796 53.1705C79.1155 53.256 79.226 53.3764 79.2996 53.5191L86.2342 66.9931L97.7141 55.109C97.847 54.9693 98.0212 54.8761 98.2111 54.843C98.401 54.8099 98.5965 54.8389 98.7687 54.9255C98.9409 55.0121 99.0807 55.1518 99.1674 55.324C99.2541 55.4961 99.2831 55.6916 99.2502 55.8815L90.51 109.778C90.4911 109.896 90.4492 110.009 90.3866 110.111C90.324 110.212 90.242 110.301 90.1453 110.371C90.0485 110.441 89.9389 110.491 89.8227 110.519C89.7065 110.547 89.586 110.551 89.468 110.532C89.35 110.513 89.2369 110.472 89.1352 110.409C89.0334 110.346 88.945 110.264 88.8749 110.168C88.8048 110.071 88.7545 109.961 88.7268 109.845C88.6991 109.729 88.6946 109.608 88.7135 109.49L97.0314 58.4416L86.6474 69.2209C86.5474 69.3235 86.4243 69.4007 86.2883 69.446C86.1523 69.4913 86.0075 69.5034 85.8659 69.4814C85.7254 69.4602 85.5918 69.4061 85.4763 69.3233C85.3607 69.2406 85.2664 69.1316 85.2012 69.0053L78.4642 55.7468L70.9636 68.4573C70.8959 68.572 70.8036 68.6701 70.6933 68.7447C70.583 68.8193 70.4575 68.8684 70.3258 68.8885C70.1948 68.9092 70.0607 68.9006 69.9334 68.8633C69.806 68.8261 69.6885 68.761 69.5893 68.6729L57.5704 58.0284L67.2807 109.499C67.3255 109.733 67.276 109.974 67.143 110.171C67.01 110.368 66.8043 110.505 66.5711 110.55L66.4004 110.595Z" fill="white"/>
<path id="Vector_12" d="M26.0058 103.265C12.3161 103.265 3.26154 99.9956 0.935013 93.7347C-2.65807 84.0783 10.4477 69.3915 35.1322 55.4144C35.2348 55.3554 35.3481 55.3173 35.4654 55.302C35.5828 55.2868 35.7021 55.2949 35.8163 55.3257C35.9306 55.3566 36.0377 55.4097 36.1315 55.4819C36.2252 55.5542 36.3038 55.6442 36.3628 55.7468C36.4218 55.8494 36.46 55.9627 36.4752 56.08C36.4904 56.1974 36.4824 56.3167 36.4515 56.4309C36.4207 56.5452 36.3676 56.6523 36.2953 56.7461C36.2231 56.8398 36.1331 56.9184 36.0305 56.9774C12.5227 70.2898 -0.59205 84.4645 2.62376 93.1059C5.83957 101.747 24.7482 103.885 50.8789 98.7291C62.9646 96.2969 74.8336 92.8903 86.3696 88.5427C97.0918 84.5924 107.507 79.8546 117.531 74.3679C142.233 60.7412 156.039 46.1712 152.725 37.2514C149.599 28.8526 131.849 26.562 106.401 31.2599C106.163 31.3028 105.917 31.2493 105.718 31.1112C105.52 30.973 105.384 30.7616 105.341 30.5233C105.298 30.2851 105.352 30.0396 105.49 29.8408C105.628 29.642 105.839 29.5063 106.078 29.4634C132.846 24.5229 150.91 27.1908 154.405 36.5957C158.114 46.5485 144.317 61.6215 118.402 75.913C108.29 81.4459 97.7815 86.2199 86.9624 90.1955C75.3392 94.5781 63.38 98.0118 51.2022 100.463C42.9112 102.193 34.4744 103.132 26.0058 103.265Z" fill="#093F68"/>
<path id="Vector_13" d="M129.325 103.274C120.811 103.153 112.328 102.215 103.994 100.472C91.8561 98.0191 79.9364 94.5916 68.3501 90.2224C57.5341 86.2394 47.0259 81.4656 36.9107 75.9398C11.0135 61.6394 -2.77496 46.5754 0.925915 36.6225C4.42917 27.1907 22.4844 24.5318 49.3158 29.5082C49.4337 29.53 49.5462 29.5749 49.6469 29.6402C49.7475 29.7055 49.8343 29.79 49.9023 29.8888C49.9703 29.9877 50.0181 30.0989 50.0431 30.2163C50.0681 30.3336 50.0697 30.4547 50.0479 30.5727C50.026 30.6906 49.9812 30.8031 49.9159 30.9038C49.8506 31.0044 49.7661 31.0912 49.6673 31.1592C49.5684 31.2271 49.4572 31.275 49.3398 31.3C49.2225 31.325 49.1014 31.3266 48.9834 31.3048C23.8947 26.6517 5.68675 28.9962 2.60568 37.2872C-0.708936 46.2071 13.0975 60.777 37.782 74.4038C47.8128 79.8879 58.234 84.6257 68.961 88.5785C80.4617 92.9074 92.2909 96.3077 104.335 98.7469C130.537 103.912 149.527 101.711 152.707 93.1417C155.887 84.5722 142.826 70.3257 119.3 57.0312C119.197 56.9723 119.107 56.8936 119.035 56.7999C118.963 56.7061 118.91 56.599 118.879 56.4848C118.848 56.3705 118.84 56.2512 118.855 56.1339C118.871 56.0165 118.909 55.9032 118.968 55.8006C119.027 55.698 119.105 55.608 119.199 55.5357C119.293 55.4635 119.4 55.4104 119.514 55.3796C119.628 55.3487 119.748 55.3406 119.865 55.3559C119.982 55.3711 120.096 55.4093 120.198 55.4683C144.892 69.4274 157.998 84.1051 154.404 93.7705C152.069 99.9956 143.014 103.274 129.325 103.274Z" fill="#093F68"/>
<path id="Vector_14" d="M12.1181 106.876C15.819 106.876 18.8192 103.876 18.8192 100.175C18.8192 96.4743 15.819 93.4741 12.1181 93.4741C8.41718 93.4741 5.41699 96.4743 5.41699 100.175C5.41699 103.876 8.41718 106.876 12.1181 106.876Z" fill="#FFBC0E"/>
<path id="Vector_15" d="M12.0916 107.775C10.5886 107.775 9.11929 107.329 7.86958 106.494C6.61987 105.659 5.64584 104.472 5.07066 103.083C4.49549 101.695 4.34499 100.167 4.63821 98.6927C4.93143 97.2186 5.65521 95.8645 6.718 94.8017C7.78079 93.7389 9.13486 93.0152 10.609 92.7219C12.0831 92.4287 13.6111 92.5792 14.9997 93.1544C16.3883 93.7296 17.5752 94.7036 18.4102 95.9533C19.2452 97.203 19.6909 98.6723 19.6909 100.175C19.6886 102.19 18.8872 104.122 17.4625 105.546C16.0379 106.971 14.1063 107.772 12.0916 107.775ZM12.0916 94.3725C10.9439 94.3725 9.82196 94.7128 8.86769 95.3504C7.91342 95.988 7.16965 96.8943 6.73045 97.9547C6.29125 99.015 6.17633 100.182 6.40023 101.307C6.62413 102.433 7.1768 103.467 7.98834 104.279C8.79989 105.09 9.83385 105.643 10.9595 105.867C12.0851 106.091 13.2519 105.976 14.3122 105.536C15.3725 105.097 16.2788 104.353 16.9164 103.399C17.5541 102.445 17.8944 101.323 17.8944 100.175C17.892 98.637 17.2799 97.1624 16.1922 96.0747C15.1044 94.987 13.6298 94.3749 12.0916 94.3725Z" fill="#093F68"/>
<path id="Vector_16" d="M136.259 71.8797C139.96 71.8797 142.96 68.8796 142.96 65.1786C142.96 61.4777 139.96 58.4775 136.259 58.4775C132.558 58.4775 129.558 61.4777 129.558 65.1786C129.558 68.8796 132.558 71.8797 136.259 71.8797Z" fill="#F56132"/>
<path id="Vector_17" d="M136.26 72.8137C134.757 72.8137 133.287 72.368 132.038 71.533C130.788 70.698 129.814 69.5111 129.239 68.1225C128.663 66.7339 128.513 65.2059 128.806 63.7318C129.099 62.2577 129.823 60.9036 130.886 59.8408C131.949 58.778 133.303 58.0542 134.777 57.761C136.251 57.4678 137.779 57.6183 139.168 58.1935C140.556 58.7686 141.743 59.7427 142.578 60.9924C143.413 62.2421 143.859 63.7114 143.859 65.2144C143.859 67.2298 143.058 69.1628 141.633 70.5879C140.208 72.0131 138.275 72.8137 136.26 72.8137ZM136.26 59.4115C135.112 59.4115 133.99 59.7519 133.036 60.3895C132.081 61.0271 131.338 61.9334 130.898 62.9937C130.459 64.054 130.344 65.2208 130.568 66.3464C130.792 67.4721 131.345 68.5061 132.156 69.3176C132.968 70.1291 134.002 70.6818 135.127 70.9057C136.253 71.1296 137.42 71.0147 138.48 70.5755C139.541 70.1363 140.447 69.3925 141.084 68.4382C141.722 67.484 142.062 66.3621 142.062 65.2144C142.071 64.4466 141.927 63.6849 141.639 62.9731C141.351 62.2612 140.925 61.6135 140.386 61.0673C139.846 60.521 139.204 60.0871 138.495 59.7906C137.787 59.4941 137.027 59.3408 136.26 59.3397V59.4115Z" fill="#093F68"/>
<path id="Vector_18" d="M32.5273 32.742C36.2282 32.742 39.2284 29.7419 39.2284 26.0409C39.2284 22.34 36.2282 19.3398 32.5273 19.3398C28.8264 19.3398 25.8262 22.34 25.8262 26.0409C25.8262 29.7419 28.8264 32.742 32.5273 32.742Z" fill="#70CC40"/>
<path id="Vector_19" d="M32.5271 33.6402C31.0241 33.6402 29.5548 33.1945 28.3051 32.3594C27.0554 31.5244 26.0814 30.3375 25.5062 28.9489C24.931 27.5603 24.7805 26.0324 25.0738 24.5582C25.367 23.0841 26.0908 21.73 27.1535 20.6672C28.2163 19.6044 29.5704 18.8807 31.0445 18.5874C32.5187 18.2942 34.0467 18.4447 35.4353 19.0199C36.8239 19.5951 38.0107 20.5691 38.8458 21.8188C39.6808 23.0685 40.1265 24.5378 40.1265 26.0408C40.1217 28.0548 39.3196 29.985 37.8954 31.4091C36.4713 32.8332 34.5411 33.6354 32.5271 33.6402ZM32.5271 20.238C31.3794 20.238 30.2575 20.5783 29.3032 21.2159C28.349 21.8535 27.6052 22.7598 27.166 23.8201C26.7268 24.8805 26.6119 26.0472 26.8358 27.1729C27.0597 28.2985 27.6123 29.3325 28.4239 30.144C29.2354 30.9555 30.2694 31.5082 31.395 31.7321C32.5207 31.956 33.6874 31.8411 34.7478 31.4019C35.8081 30.9627 36.7144 30.2189 37.352 29.2647C37.9896 28.3104 38.3299 27.1885 38.3299 26.0408C38.3299 25.2787 38.1798 24.5242 37.8882 23.8201C37.5966 23.1161 37.1692 22.4764 36.6303 21.9376C36.0915 21.3987 35.4518 20.9713 34.7478 20.6797C34.0437 20.388 33.2891 20.238 32.5271 20.238Z" fill="#093F68"/>
<g id="Group">
<path id="Vector_20" d="M18.8197 128.004C18.5814 128.004 18.3529 127.909 18.1845 127.741C18.016 127.572 17.9214 127.344 17.9214 127.106V121.321C17.9214 121.082 18.016 120.854 18.1845 120.685C18.3529 120.517 18.5814 120.422 18.8197 120.422C19.0579 120.422 19.2864 120.517 19.4548 120.685C19.6233 120.854 19.7179 121.082 19.7179 121.321V127.079C19.7215 127.199 19.701 127.318 19.6574 127.431C19.6139 127.543 19.5483 127.645 19.4646 127.731C19.3808 127.818 19.2805 127.886 19.1697 127.933C19.059 127.98 18.9399 128.004 18.8197 128.004Z" fill="#DFEAEF"/>
<path id="Vector_21" d="M18.8197 140.633C18.5814 140.633 18.3529 140.539 18.1845 140.37C18.016 140.202 17.9214 139.973 17.9214 139.735V133.977C17.9214 133.739 18.016 133.51 18.1845 133.342C18.3529 133.173 18.5814 133.079 18.8197 133.079C19.0579 133.079 19.2864 133.173 19.4548 133.342C19.6233 133.51 19.7179 133.739 19.7179 133.977V139.735C19.7179 139.973 19.6233 140.202 19.4548 140.37C19.2864 140.539 19.0579 140.633 18.8197 140.633Z" fill="#DFEAEF"/>
<path id="Vector_22" d="M28.018 131.444H22.2601C22.0219 131.444 21.7934 131.349 21.6249 131.181C21.4565 131.012 21.3618 130.784 21.3618 130.546C21.3618 130.307 21.4565 130.079 21.6249 129.911C21.7934 129.742 22.0219 129.647 22.2601 129.647H28.018C28.2562 129.647 28.4847 129.742 28.6532 129.911C28.8216 130.079 28.9163 130.307 28.9163 130.546C28.9163 130.784 28.8216 131.012 28.6532 131.181C28.4847 131.349 28.2562 131.444 28.018 131.444Z" fill="#DFEAEF"/>
<path id="Vector_23" d="M15.3793 131.444H9.62142C9.38318 131.444 9.1547 131.349 8.98624 131.181C8.81778 131.012 8.72314 130.784 8.72314 130.546C8.72314 130.307 8.81778 130.079 8.98624 129.911C9.1547 129.742 9.38318 129.647 9.62142 129.647H15.3793C15.6176 129.647 15.8461 129.742 16.0145 129.911C16.183 130.079 16.2776 130.307 16.2776 130.546C16.2776 130.784 16.183 131.012 16.0145 131.181C15.8461 131.349 15.6176 131.444 15.3793 131.444Z" fill="#DFEAEF"/>
<path id="Vector_24" d="M115.438 7.55446C115.2 7.55446 114.972 7.45982 114.803 7.29136C114.635 7.1229 114.54 6.89443 114.54 6.65619V0.898271C114.54 0.660035 114.635 0.431559 114.803 0.2631C114.972 0.0946418 115.2 0 115.438 0C115.677 0 115.905 0.0946418 116.073 0.2631C116.242 0.431559 116.337 0.660035 116.337 0.898271V6.65619C116.337 6.89443 116.242 7.1229 116.073 7.29136C115.905 7.45982 115.677 7.55446 115.438 7.55446Z" fill="#DFEAEF"/>
<path id="Vector_25" d="M115.438 20.1931C115.2 20.1931 114.972 20.0984 114.803 19.93C114.635 19.7615 114.54 19.533 114.54 19.2948V13.5279C114.54 13.2897 114.635 13.0612 114.803 12.8927C114.972 12.7243 115.2 12.6296 115.438 12.6296C115.677 12.6296 115.905 12.7243 116.073 12.8927C116.242 13.0612 116.337 13.2897 116.337 13.5279V19.2948C116.337 19.533 116.242 19.7615 116.073 19.93C115.905 20.0984 115.677 20.1931 115.438 20.1931Z" fill="#DFEAEF"/>
<path id="Vector_26" d="M124.636 10.9948H118.878C118.64 10.9948 118.412 10.9001 118.243 10.7317C118.075 10.5632 117.98 10.3347 117.98 10.0965C117.98 9.85828 118.075 9.6298 118.243 9.46134C118.412 9.29288 118.64 9.19824 118.878 9.19824H124.636C124.874 9.19824 125.103 9.29288 125.271 9.46134C125.44 9.6298 125.534 9.85828 125.534 10.0965C125.534 10.3347 125.44 10.5632 125.271 10.7317C125.103 10.9001 124.874 10.9948 124.636 10.9948Z" fill="#DFEAEF"/>
<path id="Vector_27" d="M111.998 10.9948H106.24C106.002 10.9948 105.773 10.9001 105.605 10.7317C105.436 10.5632 105.342 10.3347 105.342 10.0965C105.342 9.85828 105.436 9.6298 105.605 9.46134C105.773 9.29288 106.002 9.19824 106.24 9.19824H111.998C112.236 9.19824 112.465 9.29288 112.633 9.46134C112.802 9.6298 112.896 9.85828 112.896 10.0965C112.896 10.3347 112.802 10.5632 112.633 10.7317C112.465 10.9001 112.236 10.9948 111.998 10.9948Z" fill="#DFEAEF"/>
<path id="Vector_28" d="M130.915 120.314C130.677 120.314 130.448 120.22 130.28 120.051C130.111 119.883 130.017 119.654 130.017 119.416V114.646C130.017 114.408 130.111 114.18 130.28 114.011C130.448 113.843 130.677 113.748 130.915 113.748C131.153 113.748 131.382 113.843 131.55 114.011C131.719 114.18 131.813 114.408 131.813 114.646V119.416C131.813 119.654 131.719 119.883 131.55 120.051C131.382 120.22 131.153 120.314 130.915 120.314Z" fill="#DFEAEF"/>
<path id="Vector_29" d="M130.915 130.779C130.677 130.779 130.448 130.685 130.28 130.516C130.111 130.348 130.017 130.119 130.017 129.881V125.111C130.017 124.873 130.111 124.644 130.28 124.476C130.448 124.308 130.677 124.213 130.915 124.213C131.153 124.213 131.382 124.308 131.55 124.476C131.719 124.644 131.813 124.873 131.813 125.111V129.881C131.813 130.119 131.719 130.348 131.55 130.516C131.382 130.685 131.153 130.779 130.915 130.779Z" fill="#DFEAEF"/>
<path id="Vector_30" d="M138.532 123.162H133.763C133.524 123.162 133.296 123.067 133.127 122.899C132.959 122.73 132.864 122.502 132.864 122.264C132.864 122.026 132.959 121.797 133.127 121.629C133.296 121.46 133.524 121.365 133.763 121.365H138.532C138.771 121.365 138.999 121.46 139.168 121.629C139.336 121.797 139.431 122.026 139.431 122.264C139.431 122.502 139.336 122.73 139.168 122.899C138.999 123.067 138.771 123.162 138.532 123.162Z" fill="#DFEAEF"/>
<path id="Vector_31" d="M128.067 123.162H123.298C123.059 123.162 122.831 123.067 122.663 122.899C122.494 122.73 122.399 122.502 122.399 122.264C122.399 122.026 122.494 121.797 122.663 121.629C122.831 121.46 123.059 121.365 123.298 121.365H128.067C128.306 121.365 128.534 121.46 128.703 121.629C128.871 121.797 128.966 122.026 128.966 122.264C128.966 122.502 128.871 122.73 128.703 122.899C128.534 123.067 128.306 123.162 128.067 123.162Z" fill="#DFEAEF"/>
</g>
</g>
</svg>
