<svg width="152" height="160" viewBox="0 0 152 160" fill="none" xmlns="http://www.w3.org/2000/svg">
<g id="&#240;&#159;&#166;&#134; illustration &#34;Thinking&#34;">
<path id="Vector" d="M1.70199 123.476C1.59128 128.841 12.7723 137.008 25.8183 147.031L33.5846 137.663L22.7527 123.894L41.2572 111.316V159.148H91.1418L89.7367 86.2545C85.6662 85.5136 63.9088 83.9468 47.5502 88.8858C37.9616 91.7982 1.94043 112.21 1.70199 123.476Z" fill="#68E1FD"/>
<path id="Vector_2" d="M91.1419 160H41.2572C41.0314 160 40.8148 159.91 40.6551 159.751C40.4954 159.591 40.4057 159.374 40.4057 159.148V112.925L23.9875 124.081L34.2488 137.127C34.3698 137.278 34.4357 137.466 34.4357 137.659C34.4357 137.853 34.3698 138.04 34.2488 138.191L26.4826 147.559C26.3425 147.729 26.1417 147.839 25.9225 147.864C25.7033 147.89 25.4828 147.829 25.3074 147.695L22.7016 145.694C10.4306 136.326 0.739779 128.875 0.858998 123.442C1.10595 111.359 37.9957 90.887 47.3118 88.0768C63.7045 83.1292 85.2576 84.5769 89.8901 85.4285C90.0884 85.4647 90.2675 85.5703 90.3954 85.7262C90.5233 85.8821 90.5916 86.0784 90.5883 86.28L91.9934 159.148C91.9952 159.262 91.9743 159.375 91.9319 159.48C91.8895 159.585 91.8264 159.681 91.7465 159.762C91.5844 159.918 91.367 160.004 91.1419 160ZM42.1088 158.297H90.2733L88.8937 86.9868C83.3075 86.1864 62.9551 85.1219 47.7972 89.6948C37.7573 92.7264 2.79205 113.062 2.55362 123.493C2.45143 128.066 12.3125 135.62 23.732 144.357L25.6821 145.855L32.4946 137.638L22.097 124.413C22.0253 124.321 21.9731 124.216 21.9438 124.103C21.9146 123.99 21.9087 123.873 21.9267 123.757C21.9444 123.643 21.9852 123.533 22.0467 123.435C22.1082 123.337 22.1891 123.253 22.2844 123.187L40.7718 110.609C40.8967 110.527 41.0412 110.478 41.1908 110.469C41.3403 110.46 41.4895 110.491 41.6234 110.558C41.761 110.629 41.8765 110.737 41.9575 110.869C42.0385 111.001 42.082 111.153 42.0832 111.308L42.1088 158.297Z" fill="#093F68"/>
<path id="Vector_3" d="M69.1201 140.865H59.2505V84.2958H69.1201V140.865Z" fill="white"/>
<path id="Vector_4" d="M69.1206 141.717H59.251C59.0251 141.717 58.8085 141.627 58.6488 141.467C58.4891 141.308 58.3994 141.091 58.3994 140.865V84.2959C58.3994 84.0701 58.4891 83.8535 58.6488 83.6938C58.8085 83.5341 59.0251 83.4443 59.251 83.4443H69.1206C69.3465 83.4443 69.5631 83.5341 69.7228 83.6938C69.8825 83.8535 69.9722 84.0701 69.9722 84.2959V140.865C69.9722 141.091 69.8825 141.308 69.7228 141.467C69.5631 141.627 69.3465 141.717 69.1206 141.717ZM60.1025 140.014H68.269V85.1475H60.1025V140.014Z" fill="#093F68"/>
<path id="Vector_5" d="M69.1201 159.174H59.2505V140.874H69.1201V159.174Z" fill="#093F68"/>
<path id="Vector_6" d="M69.1206 160H59.251C59.0251 160 58.8085 159.91 58.6488 159.75C58.4891 159.591 58.3994 159.374 58.3994 159.148V140.84C58.3994 140.614 58.4891 140.397 58.6488 140.237C58.8085 140.078 59.0251 139.988 59.251 139.988H69.1206C69.3465 139.988 69.5631 140.078 69.7228 140.237C69.8825 140.397 69.9722 140.614 69.9722 140.84V159.148C69.9722 159.374 69.8825 159.591 69.7228 159.75C69.5631 159.91 69.3465 160 69.1206 160ZM60.1025 158.297H68.269V141.691H60.1025V158.297Z" fill="#093F68"/>
<path id="Vector_7" d="M58.8608 83.9791L67.6503 82.3374L68.5884 87.3599C68.7733 88.3501 68.5574 89.3732 67.988 90.2041C67.4186 91.035 66.5425 91.6057 65.5523 91.7907L64.2297 92.0377C63.2395 92.2227 62.2165 92.0067 61.3855 91.4373C60.5546 90.8679 59.9839 89.9918 59.799 89.0017L58.8608 83.9791Z" fill="#FFC9B0"/>
<path id="Vector_8" d="M63.5253 92.9733C62.4429 92.9682 61.3961 92.5863 60.5648 91.8932C59.7334 91.2001 59.1693 90.2391 58.9694 89.1753L58.0242 84.117C57.9844 83.8958 58.0337 83.6678 58.1613 83.4828C58.2889 83.2977 58.4845 83.1706 58.7055 83.1292L67.5106 81.4857C67.6208 81.4653 67.734 81.4668 67.8435 81.4902C67.9531 81.5136 68.0571 81.5583 68.1493 81.622C68.3329 81.7506 68.4583 81.9464 68.4985 82.167L69.4437 87.2252C69.5558 87.8247 69.5487 88.4403 69.4227 89.037C69.2968 89.6337 69.0545 90.1997 68.7097 90.7027C68.3649 91.2057 67.9243 91.6357 67.4132 91.9684C66.9021 92.301 66.3304 92.5296 65.7309 92.6412L64.4024 92.8882C64.1139 92.9476 63.8199 92.9761 63.5253 92.9733ZM59.8551 84.645L60.647 88.9028C60.7147 89.2839 60.8581 89.6475 61.0687 89.9723C61.2793 90.297 61.5529 90.5761 61.8733 90.7933C62.1917 91.0132 62.5506 91.1678 62.9292 91.2482C63.3077 91.3286 63.6985 91.3332 64.0788 91.2617L65.3988 91.0147C66.1611 90.8718 66.8364 90.4339 67.278 89.7962C67.7196 89.1585 67.8919 88.3724 67.7576 87.6085L66.9656 83.3506L59.8551 84.645Z" fill="#093F68"/>
<path id="Vector_9" d="M28.0748 66.0979C27.2233 63.4069 24.6686 62.2658 23.1784 59.9751C21.1554 56.7765 20.4589 52.9152 21.2368 49.2113C18.6735 47.4897 16.805 44.9138 15.9643 41.9426C15.1237 38.9715 15.3656 35.7984 16.6469 32.989C17.2697 31.9151 17.8243 30.803 18.3074 29.6594C18.7214 28.0588 18.9021 26.4067 18.8439 24.7544C18.9887 21.2545 19.8147 17.6609 21.9606 14.8933C24.1066 12.1257 27.7598 10.3459 31.1745 11.1294C32.1283 7.10147 36.1221 4.63193 39.8946 2.92881C42.4493 1.79622 45.0806 0.799894 47.8397 0.893567C50.5987 0.987239 54.5159 4.98108 54.5159 4.98108C54.5159 4.98108 63.3381 2.0006 67.647 3.45677C71.956 4.91295 77.1505 12.6281 77.1505 12.6281C77.1505 12.6281 79.9011 13.3945 80.7526 13.5648C82.6172 13.9198 84.3694 14.7171 85.862 15.8896C90.9714 19.8835 93.3302 29.7957 89.1746 35.1435C89.1746 35.1435 91.0651 38.703 91.1928 39.0862C91.7085 40.5814 91.8916 42.1711 91.7293 43.7443C91.4057 47.0569 89.9836 50.3184 90.0262 53.6735L84.4058 53.7417C76.597 53.8268 67.5193 57.446 59.9234 59.115L41.1889 63.2196C38.1318 63.8923 32.2731 66.4555 29.1563 65.8594C28.7858 65.8832 28.4211 65.9636 28.0748 66.0979Z" fill="#725858"/>
<path id="Vector_10" d="M28.0752 66.9494C27.8956 66.9493 27.7207 66.8924 27.5754 66.7869C27.4301 66.6813 27.3219 66.5326 27.2662 66.3618C26.7126 65.0427 25.8336 63.8855 24.7115 62.9982C23.8571 62.2377 23.094 61.3804 22.4378 60.4435C20.3997 57.2255 19.6261 53.3665 20.2663 49.6116C17.6895 47.7091 15.8449 44.9786 15.0418 41.8778C14.2387 38.7771 14.5259 35.4945 15.8552 32.5803C16.0511 32.18 16.2725 31.7883 16.4854 31.4051C16.8771 30.7546 17.2105 30.0707 17.4817 29.3614C17.8207 28.1423 17.9757 26.8794 17.9416 25.6145V24.6948C18.1204 20.437 19.2274 16.9456 21.2371 14.3483C22.3004 12.9034 23.7172 11.756 25.3516 11.0164C26.9859 10.2767 28.783 9.96962 30.5703 10.1245C31.9753 5.95186 36.3183 3.56748 39.5458 2.11982C42.1004 0.96169 44.9021 -0.102765 47.8741 0.00793829C50.4287 0.10161 53.6221 2.90326 54.7462 3.97623C56.7218 3.35459 63.9516 1.26825 67.9199 2.61373C72.0329 4.01029 76.6995 10.4481 77.6788 11.8617C78.4112 12.0576 80.2335 12.5685 80.9148 12.7133C82.9204 13.1036 84.8036 13.9679 86.4073 15.2339C91.5593 19.2874 94.2417 29.3103 90.2053 35.2116C90.8998 36.3738 91.5061 37.5864 92.0191 38.8393C92.5718 40.4469 92.7694 42.1552 92.5982 43.8465C92.4139 45.3175 92.1294 46.7742 91.7467 48.2065C91.241 49.9902 90.955 51.829 90.8951 53.6821C90.8951 53.9079 90.8054 54.1245 90.6457 54.2842C90.486 54.4439 90.2694 54.5336 90.0435 54.5336L84.4147 54.6017C79.3053 54.6614 73.5147 56.3049 67.9454 57.8803C65.2034 58.6637 62.6061 59.4046 60.111 59.9496L41.3766 64.0626C40.525 64.2585 39.2903 64.6332 38.03 65.0419C34.9132 66.0297 31.3792 67.1623 29.0034 66.7451C28.8983 66.7919 28.7902 66.8317 28.6798 66.8643L28.2285 66.9835L28.0752 66.9494ZM29.0715 64.9993C29.1565 64.991 29.242 64.991 29.327 64.9993C31.2856 65.374 34.7429 64.267 37.519 63.3814C38.8219 62.9641 40.0737 62.5724 41.019 62.3595L59.7534 58.2549C62.1974 57.7185 64.7691 56.9861 67.4941 56.2112C73.157 54.5932 79.0243 52.9242 84.4062 52.8646L89.209 52.8049C89.3554 51.0983 89.6546 49.4083 90.1031 47.7552C90.4701 46.4022 90.7405 45.0249 90.9121 43.6336C91.0513 42.1947 90.88 40.7427 90.4097 39.3758C90.282 39.0266 88.7832 36.1143 88.5192 35.6715C88.4812 35.6248 88.4497 35.5733 88.4255 35.5182C88.3657 35.3799 88.3437 35.2282 88.3616 35.0786C88.3796 34.929 88.4369 34.7868 88.5277 34.6666C92.3938 29.685 90.018 20.2667 85.3599 16.5964C83.9712 15.4861 82.3355 14.7267 80.5912 14.3823C79.7396 14.212 77.0401 13.4627 76.9209 13.4371C76.7285 13.3796 76.5626 13.2559 76.4526 13.088C76.4015 13.0113 71.3432 5.5942 67.3749 4.24873C63.4066 2.90326 54.8739 5.73897 54.7887 5.77303C54.6409 5.81821 54.4835 5.82226 54.3334 5.78476C54.1834 5.74725 54.0464 5.6696 53.9372 5.56014C52.9068 4.52123 49.8156 1.79622 47.8315 1.7281C45.2172 1.63443 42.6625 2.57966 40.2696 3.6867C35.356 5.90076 32.7418 8.31921 32.0264 11.3082C32.0013 11.4173 31.955 11.5203 31.89 11.6115C31.8251 11.7026 31.7428 11.78 31.6479 11.8394C31.553 11.8987 31.4473 11.9387 31.3369 11.9572C31.2265 11.9756 31.1136 11.9721 31.0046 11.9469C28.1263 11.2827 24.7711 12.6707 22.6592 15.3531C20.8709 17.6694 19.8831 20.8202 19.7213 24.7203V25.5719C19.7571 27.0112 19.5704 28.4474 19.1678 29.8297C18.8605 30.6782 18.4697 31.494 18.0012 32.2652C17.7968 32.6314 17.5924 32.9976 17.4051 33.3722C16.2107 35.9907 15.9831 38.9478 16.7626 41.7182C17.5422 44.4886 19.2784 46.8931 21.6629 48.5045C21.8012 48.5948 21.9103 48.7234 21.9768 48.8746C22.0433 49.0258 22.0645 49.1931 22.0376 49.3561C21.3049 52.855 21.9712 56.5016 23.894 59.5153C24.4808 60.3376 25.1577 61.0917 25.9122 61.7634C27.0025 62.6855 27.9071 63.8068 28.5776 65.0675C28.7386 65.0233 28.9046 65.0004 29.0715 64.9993Z" fill="#093F68"/>
<path id="Vector_11" d="M34.3891 72.547C39.0902 71.6835 42.2981 67.6992 41.554 63.6479C40.8098 59.5966 36.3955 57.0124 31.6944 57.8759C26.9932 58.7393 23.7854 62.7236 24.5295 66.7749C25.2736 70.8262 29.6879 73.4104 34.3891 72.547Z" fill="#FFC9B0"/>
<path id="Vector_12" d="M33.3971 73.3958C31.6407 73.4064 29.9128 72.951 28.3899 72.0758C27.3945 71.5266 26.5312 70.7664 25.8605 69.8486C25.1897 68.9307 24.7277 67.8773 24.5068 66.7621C23.6552 62.2488 27.1807 57.7866 32.3497 56.8243C34.7505 56.3454 37.2435 56.7443 39.3751 57.9484C40.3697 58.4985 41.2325 59.259 41.9031 60.1767C42.5737 61.0944 43.0362 62.1474 43.2582 63.2622C43.453 64.3825 43.4016 65.5319 43.1075 66.6304C42.8134 67.7289 42.2836 68.7502 41.5551 69.6233C40.0011 71.5119 37.8237 72.7833 35.4153 73.2084C34.7499 73.3337 34.0742 73.3964 33.3971 73.3958ZM34.3679 58.3401C33.7968 58.3408 33.2268 58.3921 32.6648 58.4934C28.4069 59.2854 25.5116 62.8619 26.1844 66.4555C26.3603 67.3291 26.7251 68.1537 27.2532 68.8716C27.7812 69.5894 28.4598 70.1831 29.2415 70.6112C31.0303 71.5803 33.0979 71.9052 35.0977 71.5316C37.0976 71.158 38.9084 70.1085 40.2267 68.5589C40.8015 67.8772 41.2205 67.0782 41.4543 66.2177C41.6882 65.3573 41.7313 64.4561 41.5806 63.5772C41.4043 62.7026 41.0384 61.8773 40.5088 61.1594C39.9791 60.4414 39.2986 59.8482 38.515 59.4216C37.2528 58.7002 35.8216 58.327 34.3679 58.3401Z" fill="#093F68"/>
<path id="Vector_13" d="M85.017 63.093C89.7325 62.2122 92.9399 58.2039 92.1809 54.1402C91.4219 50.0765 86.9838 47.4962 82.2683 48.377C77.5527 49.2578 74.3453 53.2661 75.1043 57.3298C75.8634 61.3935 80.3014 63.9738 85.017 63.093Z" fill="#FFC9B0"/>
<path id="Vector_14" d="M83.1802 64.0967C78.8032 64.0967 75.0052 61.3972 74.2729 57.463C73.4213 52.9497 76.9468 48.4875 82.1158 47.5253C84.5166 47.0463 87.0097 47.4452 89.1412 48.6493C90.1357 49.1986 90.9979 49.9589 91.6673 50.8769C92.3367 51.7949 92.7969 52.8483 93.0158 53.9631C93.213 55.0834 93.1626 56.2334 92.8684 57.3322C92.5742 58.4311 92.0432 59.4523 91.3127 60.3243C89.7591 62.2174 87.5772 63.4897 85.1644 63.9094C84.5103 64.0337 83.846 64.0964 83.1802 64.0967ZM84.1255 49.041C83.5543 49.0408 82.9843 49.0921 82.4224 49.1943C78.1645 49.9863 75.2692 53.5628 75.9334 57.1565C76.5977 60.7501 80.6085 63.0237 84.8578 62.2658C86.8633 61.9228 88.6776 60.8675 89.9672 59.2939C90.543 58.6126 90.9633 57.8139 91.1986 56.9535C91.4339 56.0931 91.4787 55.1917 91.3297 54.3122C91.1517 53.4383 90.7852 52.6136 90.2558 51.8959C89.7263 51.1782 89.0466 50.5846 88.2641 50.1566C87.0067 49.4271 85.5791 49.0422 84.1255 49.041Z" fill="#093F68"/>
<path id="Vector_15" d="M63.4665 84.2958C56.6393 85.5703 49.5853 84.0813 43.8557 80.1561C38.126 76.2309 34.1898 70.191 32.9124 63.3643L30.5706 50.8037C30.4258 50.0458 29.8638 48.6493 30.0256 47.8914C30.3236 46.4522 31.4221 46.3501 32.6654 45.3367C35.6979 42.6178 37.8579 39.0622 38.8733 35.1179C41.4418 35.8465 44.1821 35.6755 46.6401 34.6331C49.098 33.5908 51.1259 31.7398 52.3876 29.3869C53.4339 30.6408 54.7818 31.608 56.3047 32.1977C57.8276 32.7874 59.4754 32.9802 61.0932 32.7579C62.7111 32.5357 64.2459 31.9057 65.5533 30.9272C66.8608 29.9487 67.898 28.6539 68.5674 27.1643C68.973 28.2471 69.6288 29.2188 70.4811 30.0001C71.3335 30.7815 72.3584 31.3504 73.4724 31.6606C75.1074 32.0949 78.4881 31.0645 79.774 31.8053C80.6255 32.3163 80.6255 33.4233 80.7958 34.4707C81.3068 37.2383 81.8262 39.9974 82.3457 42.765L84.398 53.7416C85.0302 57.1223 84.9903 60.5943 84.2805 63.9595C83.5707 67.3247 82.2049 70.5171 80.2612 73.3544C78.3175 76.1917 75.8339 78.6184 72.9522 80.4957C70.0705 82.373 66.8473 83.6643 63.4665 84.2958Z" fill="#FFC9B0"/>
<g id="Group">
<path id="Vector_16" d="M58.6457 85.5987C52.3393 85.5865 46.2347 83.3742 41.3845 79.3433C36.5344 75.3124 33.2427 69.7155 32.0769 63.5177L29.7266 50.9997C29.6762 50.7406 29.6108 50.4847 29.5308 50.2332C29.2366 49.4452 29.1203 48.6019 29.1901 47.7637C29.3054 47.2514 29.5376 46.7727 29.8685 46.365C30.1994 45.9573 30.62 45.6316 31.0976 45.4134C31.457 45.2028 31.7987 44.9636 32.1195 44.6981C35.0345 42.1082 37.1101 38.7072 38.0805 34.9306C38.1097 34.8189 38.1614 34.7142 38.2323 34.6231C38.3033 34.5319 38.3921 34.4562 38.4932 34.4004C38.5944 34.3446 38.7059 34.3101 38.8208 34.2987C38.9358 34.2874 39.0519 34.2996 39.162 34.3345C41.5374 35.0055 44.0706 34.8463 46.3434 33.8833C48.6162 32.9204 50.4926 31.2111 51.6629 29.0378C51.7269 28.9189 51.8183 28.8169 51.9296 28.7402C52.0408 28.6636 52.1687 28.6145 52.3026 28.597C52.4365 28.5796 52.5727 28.5942 52.6999 28.6398C52.827 28.6853 52.9415 28.7604 53.0339 28.859C53.9888 29.9941 55.2156 30.8688 56.6 31.4014C57.9844 31.934 59.4811 32.1072 60.9505 31.9048C62.42 31.7025 63.8142 31.1311 65.003 30.244C66.1918 29.357 67.1365 28.1832 67.749 26.8323C67.821 26.6703 67.9417 26.5349 68.0944 26.4448C68.247 26.3547 68.424 26.3145 68.6005 26.3298C68.7697 26.3367 68.9329 26.3939 69.0694 26.494C69.206 26.5941 69.3095 26.7326 69.3669 26.8919C69.7278 27.8535 70.3121 28.7156 71.0717 29.407C71.8312 30.0985 72.7443 30.5994 73.7355 30.8687C74.6055 30.9904 75.4883 30.9904 76.3583 30.8687C77.8741 30.7324 79.3047 30.5962 80.2414 31.1412C80.6603 31.443 81.0005 31.8412 81.2332 32.3021C81.4659 32.7631 81.5843 33.2732 81.5784 33.7895C81.5784 33.9854 81.638 34.1898 81.6721 34.3856L85.2401 53.5544C86.5398 60.5972 84.9948 67.868 80.9437 73.7738C76.8927 79.6796 70.6658 83.7389 63.6274 85.0622C61.9872 85.3959 60.3194 85.5755 58.6457 85.5987ZM39.46 36.1484C38.3333 39.9357 36.1714 43.3333 33.218 45.9584C32.8311 46.2724 32.4212 46.5571 31.9918 46.81C31.2424 47.2698 30.9784 47.4657 30.8592 48.0618C30.8726 48.6427 30.979 49.2176 31.1743 49.7649C31.268 50.1055 31.3531 50.4291 31.4042 50.6761L33.7545 63.2366C34.9888 69.8416 38.7963 75.6857 44.3395 79.4834C49.8826 83.281 56.7074 84.7211 63.3123 83.4868C69.9173 82.2526 75.7614 78.4451 79.5591 72.9019C83.3567 67.3587 84.7968 60.534 83.5625 53.929L79.9689 34.6667C79.9689 34.4367 79.8923 34.2153 79.8582 33.9939C79.756 33.236 79.6794 32.7677 79.3558 32.5803C78.8789 32.3078 77.5505 32.4356 76.4775 32.5292C75.4146 32.7052 74.33 32.7052 73.2671 32.5292C71.293 31.9963 69.5891 30.745 68.4898 29.0208C67.6462 30.2953 66.5338 31.3696 65.2305 32.1681C63.9273 32.9667 62.465 33.4701 60.9464 33.6429C59.4278 33.8158 57.8898 33.654 56.4404 33.1688C54.991 32.6836 53.6655 31.8869 52.5571 30.8346C51.1393 32.911 49.1403 34.5228 46.8105 35.468C44.4807 36.4133 41.9237 36.6499 39.46 36.1484Z" fill="#093F68"/>
<path id="Vector_17" d="M46.0432 59.4642C47.3835 59.4642 48.4701 58.3776 48.4701 57.0372C48.4701 55.6968 47.3835 54.6102 46.0432 54.6102C44.7028 54.6102 43.6162 55.6968 43.6162 57.0372C43.6162 58.3776 44.7028 59.4642 46.0432 59.4642Z" fill="#093F68"/>
<path id="Vector_18" d="M70.6276 54.8658C71.968 54.8658 73.0546 53.7792 73.0546 52.4388C73.0546 51.0984 71.968 50.0118 70.6276 50.0118C69.2873 50.0118 68.2007 51.0984 68.2007 52.4388C68.2007 53.7792 69.2873 54.8658 70.6276 54.8658Z" fill="#093F68"/>
<path id="Vector_19" d="M57.105 63.9263C56.8791 63.9263 56.6625 63.8366 56.5028 63.6769C56.3431 63.5172 56.2534 63.3006 56.2534 63.0747C56.2534 62.8489 56.3431 62.6323 56.5028 62.4726C56.6625 62.3129 56.8791 62.2232 57.105 62.2232C58.264 62.1981 59.4126 61.9971 60.5112 61.6271C60.4516 60.8607 59.1062 58.5614 57.4797 56.5177C57.4099 56.4295 57.3582 56.3284 57.3277 56.2202C57.2972 56.112 57.2884 55.9988 57.3019 55.8872C57.3153 55.7755 57.3508 55.6677 57.4061 55.5698C57.4615 55.472 57.5357 55.386 57.6244 55.317C57.802 55.1787 58.027 55.1163 58.2504 55.1434C58.4738 55.1705 58.6774 55.285 58.8166 55.4617C59.9662 56.9179 62.572 60.486 62.1633 62.1721C62.116 62.3809 62.0216 62.5762 61.8872 62.743C61.7529 62.9097 61.5823 63.0436 61.3884 63.1343C60.0138 63.661 58.5594 63.949 57.0879 63.9859L57.105 63.9263Z" fill="#093F68"/>
<path id="Vector_20" d="M54.2688 74.6731C54.0922 74.6744 53.9196 74.6208 53.7749 74.5198C53.5913 74.3895 53.4667 74.1919 53.4284 73.9701C53.3901 73.7483 53.4412 73.5203 53.5705 73.3361C55.5376 70.5344 59.9402 66.0637 67.2637 67.588C67.4895 67.6343 67.6877 67.7684 67.8147 67.9609C67.9416 68.1533 67.987 68.3883 67.9407 68.6142C67.8944 68.84 67.7602 69.0382 67.5678 69.1652C67.3754 69.2921 67.1404 69.3375 66.9145 69.2912C60.5448 67.9627 56.6957 71.8884 54.9926 74.3495C54.9073 74.4581 54.7968 74.5443 54.6707 74.6006C54.5446 74.657 54.4066 74.6819 54.2688 74.6731Z" fill="#093F68"/>
<path id="Vector_21" d="M40.5334 55.5129C40.184 55.5132 39.8429 55.4061 39.5564 55.206C39.27 55.0059 39.052 54.7225 38.9321 54.3943C38.8121 54.0662 38.7961 53.709 38.886 53.3714C38.9759 53.0337 39.1676 52.7319 39.4349 52.5069C45.1659 47.67 50.5563 49.4583 52.6086 51.0848C52.9643 51.3637 53.1946 51.7725 53.2489 52.2212C53.3032 52.67 53.177 53.1219 52.8981 53.4777C52.6192 53.8334 52.2104 54.0637 51.7616 54.118C51.3129 54.1723 50.8609 54.0461 50.5052 53.7672C50.3264 53.6224 46.5965 50.923 41.6319 55.1127C41.3244 55.3715 40.9353 55.5133 40.5334 55.5129Z" fill="#093F68"/>
<path id="Vector_22" d="M62.129 44.7916C61.7627 44.7915 61.4062 44.6734 61.1124 44.4546C60.8186 44.2359 60.6031 43.9283 60.498 43.5775C60.3928 43.2266 60.4036 42.8512 60.5286 42.507C60.6537 42.1627 60.8864 41.8679 61.1922 41.6664C69.3247 36.3015 76.4778 39.2224 76.7759 39.3501C77.1926 39.5252 77.5227 39.8585 77.6935 40.277C77.8644 40.6954 77.8621 41.1645 77.687 41.5812C77.512 41.9979 77.1786 42.328 76.7602 42.4989C76.3418 42.6698 75.8726 42.6674 75.456 42.4924C75.192 42.3817 69.6057 40.2017 63.0657 44.5106C62.7876 44.6938 62.462 44.7915 62.129 44.7916Z" fill="#093F68"/>
</g>
<path id="Vector_23" d="M80.2249 80.6425C80.2249 80.6425 129.02 91.1763 125.443 103.541C120.751 119.789 74.5024 99.0703 74.5024 99.0703L80.2249 80.6425Z" fill="#68E1FD"/>
<path id="Vector_24" d="M113.496 110.609C98.3636 110.609 75.2947 100.39 74.128 99.8538C73.9373 99.7693 73.7843 99.6176 73.6979 99.4277C73.6116 99.2378 73.598 99.0227 73.6597 98.8234L79.4333 80.3871C79.4966 80.1833 79.6341 80.0106 79.8186 79.9034C80.0031 79.7962 80.2212 79.7621 80.4296 79.808C82.005 80.1486 119.15 88.2811 125.563 98.9597C126.016 99.6702 126.313 100.469 126.435 101.302C126.556 102.136 126.5 102.986 126.269 103.797C125.93 104.996 125.326 106.104 124.502 107.04C123.678 107.975 122.656 108.715 121.509 109.204C118.969 110.238 116.237 110.717 113.496 110.609ZM75.5161 98.5935C80.387 100.697 109.579 112.832 120.76 107.637C121.687 107.253 122.514 106.663 123.179 105.912C123.845 105.161 124.331 104.269 124.6 103.303C124.756 102.715 124.784 102.101 124.683 101.502C124.581 100.903 124.353 100.332 124.013 99.8283C118.495 90.5803 86.1692 82.8736 80.7788 81.6474L75.5161 98.5935Z" fill="#093F68"/>
<path id="Vector_25" d="M73.5913 79.774C72.8239 79.0743 72.203 78.2293 71.7645 77.2879C71.326 76.3466 71.0786 75.3276 71.0366 74.2899C70.9259 70.8326 71.6582 67.4774 74.4428 67.4774C77.2274 67.4774 76.2737 69.0017 76.6228 71.2413C76.972 73.4809 76.4781 75.678 79.7055 77.9857C82.9329 80.2935 83.1628 80.3786 84.04 85.4369C84.9171 90.4952 80.5485 96.1922 77.4914 98.5595C72.9611 102.068 64.5562 98.4403 63.6365 96.4987C62.7168 94.5572 65.0501 93.7226 65.0501 93.7226C65.0501 93.7226 61.3883 93.2628 61.8397 90.5804C62.291 87.8979 64.471 88.0257 64.471 88.0257C64.471 88.0257 60.4772 86.6376 62.8275 83.8871C62.8275 83.8871 50.3521 82.4053 50.0029 81.3324C49.6538 80.2594 48.2998 78.7777 52.0637 78.0113C55.8276 77.2449 73.5913 79.774 73.5913 79.774Z" fill="#FFC9B0"/>
<path id="Vector_26" d="M72.5609 100.859C71.4127 100.851 70.2694 100.708 69.1547 100.433C66.1486 99.7177 63.4066 98.1678 62.785 96.8394C62.6105 96.5101 62.5102 96.1466 62.491 95.7744C62.4719 95.4022 62.5345 95.0304 62.6743 94.6849C62.7738 94.4448 62.9087 94.2209 63.0745 94.0207C62.4366 93.7493 61.8772 93.3218 61.448 92.7774C61.2019 92.4419 61.0273 92.0594 60.935 91.6537C60.8428 91.2479 60.8348 90.8275 60.9115 90.4186C61.0424 89.4128 61.5583 88.497 62.3507 87.8639C61.8207 87.4544 61.4333 86.8882 61.2436 86.2459C61.1001 85.702 61.1329 85.1265 61.3373 84.6024C49.6283 83.1036 49.2962 82.1414 49.1174 81.656C49.0748 81.5368 49.0152 81.4005 48.9556 81.2643C48.7446 80.909 48.618 80.51 48.5855 80.0981C48.553 79.6862 48.6155 79.2723 48.7682 78.8884C49.1855 78.0879 50.1563 77.56 51.8168 77.2364C54.8995 76.6232 66.5829 78.0368 71.5135 78.6755C70.6726 77.3908 70.1986 75.9009 70.1425 74.3666C70.0744 72.1866 70.3043 69.2572 71.803 67.7074C72.1323 67.3631 72.5292 67.0908 72.9689 66.9076C73.4086 66.7244 73.8815 66.6343 74.3577 66.6429C77.236 66.6429 77.2531 68.346 77.2701 69.683C77.2647 70.1644 77.2961 70.6455 77.3638 71.1221C77.4319 71.5564 77.4659 71.9737 77.5 72.4165C77.6533 74.1196 77.781 75.661 80.0973 77.313L80.2591 77.4237C83.5546 79.774 83.8867 80.1402 84.7809 85.3092C85.7346 90.8529 81.0766 96.7968 77.9088 99.2493C76.3536 100.363 74.4726 100.929 72.5609 100.859ZM64.3093 88.8602C64.0197 88.8602 62.8872 88.9794 62.6061 90.6911C62.5653 90.876 62.5646 91.0675 62.6043 91.2526C62.644 91.4377 62.723 91.6122 62.8361 91.764C63.4448 92.37 64.2396 92.7539 65.0927 92.8541C65.2812 92.8795 65.4558 92.9674 65.5886 93.1037C65.7213 93.2399 65.8047 93.4167 65.8253 93.6058C65.8458 93.795 65.8025 93.9855 65.7021 94.1472C65.6018 94.3088 65.4502 94.4321 65.2715 94.4976C64.8473 94.6589 64.4901 94.959 64.2582 95.3491C64.2142 95.4766 64.199 95.6122 64.2137 95.7462C64.2284 95.8802 64.2727 96.0092 64.3433 96.1241C64.6073 96.6946 66.5829 98.0741 69.5634 98.7895C71.3176 99.2067 74.6047 99.641 76.9039 97.8698C79.961 95.5024 83.9208 90.112 83.1374 85.5647C82.3539 81.0173 82.2858 80.8981 79.3053 78.7521L79.1435 78.6329C76.1886 76.5296 76.0012 74.3751 75.8394 72.5017C75.8394 72.1099 75.7713 71.7182 75.7117 71.3265C75.6356 70.762 75.5986 70.193 75.601 69.6234C75.601 68.2779 75.601 68.2524 74.3748 68.2609C74.1261 68.2527 73.8786 68.2971 73.6482 68.391C73.4179 68.4849 73.2099 68.6262 73.0378 68.8059C72.1862 69.6574 71.769 71.6075 71.8541 74.2218C71.8965 75.14 72.1199 76.0408 72.5116 76.8723C72.9032 77.7039 73.4554 78.4498 74.1363 79.0672C74.2823 79.1841 74.3857 79.3458 74.4306 79.5273C74.4756 79.7089 74.4595 79.9001 74.3849 80.0716C74.3103 80.2431 74.1813 80.3853 74.0179 80.4761C73.8545 80.567 73.6656 80.6016 73.4806 80.5745C68.5501 79.8847 55.1209 78.2327 52.1915 78.8203C50.6331 79.1268 50.3606 79.5186 50.3266 79.5867C50.2925 79.6548 50.4117 80.1657 50.5565 80.4893C50.6076 80.6086 50.6587 80.7193 50.7013 80.83C51.7913 81.4005 57.7693 82.3713 62.8957 82.9844C63.0484 83.0032 63.1932 83.063 63.3146 83.1574C63.4361 83.2519 63.5297 83.3775 63.5854 83.5209C63.6394 83.6629 63.6545 83.8167 63.629 83.9664C63.6036 84.1161 63.5385 84.2563 63.4407 84.3725C63.2565 84.5374 63.1148 84.7442 63.0273 84.9754C62.9399 85.2066 62.9093 85.4554 62.9383 85.7009C63.1341 86.4418 64.3178 87.0123 64.718 87.1571C64.9105 87.2261 65.0717 87.3619 65.1722 87.5399C65.2728 87.7179 65.3059 87.9262 65.2656 88.1266C65.2253 88.327 65.1143 88.5062 64.9528 88.6315C64.7913 88.7569 64.5901 88.8199 64.3859 88.8091L64.3093 88.8602Z" fill="#093F68"/>
<path id="Vector_27" d="M33.5846 137.655L41.2486 144.808C41.2486 144.808 41.3849 150.181 41.2486 153.596C41.1124 157.011 38.0297 157.726 34.8789 158.382C31.7281 159.038 27.4022 159.038 28.5774 157.07C29.7525 155.103 33.4994 154.644 33.4994 154.644C33.4994 154.644 29.8207 155.631 27.266 151.169C26.6623 149.833 26.1723 148.449 25.8013 147.031L33.5846 137.655Z" fill="#FFC9B0"/>
<path id="Vector_28" d="M31.2771 159.625C29.8379 159.625 28.4243 159.395 27.8708 158.561C27.6749 158.277 27.57 157.939 27.57 157.594C27.57 157.249 27.6749 156.912 27.8708 156.628C28.3553 155.891 29.0328 155.302 29.8294 154.925C28.4368 154.164 27.2971 153.012 26.5509 151.612C25.9004 150.222 25.3815 148.773 25.001 147.286C24.9647 147.155 24.9604 147.017 24.9886 146.883C25.0167 146.75 25.0765 146.625 25.1628 146.52L32.9291 137.152C33.0025 137.064 33.0933 136.991 33.1957 136.938C33.2982 136.885 33.4103 136.854 33.5252 136.846C33.6411 136.837 33.7576 136.852 33.8674 136.89C33.9773 136.929 34.0782 136.989 34.1639 137.067L41.8279 144.22C41.9115 144.298 41.9787 144.391 42.0255 144.495C42.0723 144.599 42.0978 144.711 42.1004 144.825C42.1004 144.876 42.2367 150.275 42.1004 153.673C41.9472 157.828 38.1236 158.62 35.058 159.259C33.8116 159.497 32.5459 159.619 31.2771 159.625ZM29.2674 157.616C29.7698 157.956 32.052 158.101 34.7259 157.547C38.0896 156.849 40.3122 156.193 40.4143 153.562C40.5165 150.718 40.4143 146.434 40.4143 145.183L33.6614 138.89L26.7552 147.235C27.0762 148.439 27.5007 149.613 28.0241 150.743C29.7272 153.775 32.0179 153.945 32.9121 153.877L33.4145 153.801C33.6291 153.773 33.8463 153.828 34.0218 153.954C34.1974 154.081 34.3182 154.269 34.3597 154.482C34.4014 154.695 34.3603 154.915 34.2447 155.099C34.1292 155.282 33.948 155.415 33.7381 155.47C33.5228 155.524 33.3035 155.561 33.0824 155.58C31.9328 155.81 29.9912 156.432 29.327 157.505L29.2674 157.616Z" fill="#093F68"/>
<path id="Vector_29" d="M41.2568 112.168C41.031 112.168 40.8144 112.078 40.6547 111.918C40.495 111.758 40.4053 111.542 40.4053 111.316V101.77C40.4053 101.544 40.495 101.327 40.6547 101.168C40.8144 101.008 41.031 100.918 41.2568 100.918C41.4827 100.918 41.6993 101.008 41.859 101.168C42.0187 101.327 42.1084 101.544 42.1084 101.77V111.316C42.1084 111.542 42.0187 111.758 41.859 111.918C41.6993 112.078 41.4827 112.168 41.2568 112.168Z" fill="#093F68"/>
<path id="Vector_30" d="M84.0822 149.5C83.9701 149.501 83.859 149.479 83.7553 149.437C83.6515 149.394 83.5572 149.332 83.4776 149.253L75.558 141.478C75.4782 141.399 75.4149 141.305 75.3716 141.201C75.3284 141.097 75.3062 140.986 75.3062 140.874C75.3062 140.761 75.3284 140.65 75.3716 140.546C75.4149 140.442 75.4782 140.348 75.558 140.269C75.7176 140.111 75.9334 140.021 76.1584 140.021C76.3834 140.021 76.5992 140.111 76.7587 140.269L84.6868 148.052C84.8454 148.212 84.9344 148.428 84.9344 148.653C84.9344 148.878 84.8454 149.094 84.6868 149.253C84.6072 149.332 84.5129 149.394 84.4091 149.437C84.3054 149.479 84.1943 149.501 84.0822 149.5Z" fill="#093F68"/>
<path id="Vector_31" d="M46.3244 149.5C46.2117 149.5 46.1003 149.477 45.9965 149.433C45.8927 149.389 45.7987 149.325 45.7198 149.245C45.5612 149.085 45.4722 148.869 45.4722 148.644C45.4722 148.419 45.5612 148.204 45.7198 148.044L53.6394 140.261C53.8008 140.103 54.0185 140.015 54.2445 140.018C54.4705 140.02 54.6862 140.112 54.8443 140.273C55.0024 140.435 55.0899 140.653 55.0875 140.879C55.0851 141.105 54.993 141.32 54.8315 141.478L46.912 149.253C46.7555 149.408 46.5449 149.497 46.3244 149.5Z" fill="#093F68"/>
<path id="Vector_32" d="M150.224 39.41C150.225 38.276 150.002 37.153 149.57 36.1049C149.137 35.0568 148.502 34.1043 147.701 33.3017C146.899 32.4991 145.948 31.8621 144.901 31.4271C143.854 30.9922 142.731 30.7677 141.597 30.7666C141.135 30.7717 140.674 30.8116 140.218 30.8858C139.073 29.4997 137.635 28.3839 136.009 27.6183C134.382 26.8528 132.606 26.4564 130.808 26.4577C129.569 26.458 128.338 26.6446 127.155 27.0112C126.153 25.3932 124.653 24.145 122.879 23.4554C121.106 22.7658 119.156 22.6721 117.325 23.1886C115.494 23.7051 113.88 24.8037 112.728 26.3183C111.577 27.833 110.949 29.6813 110.941 31.5841C110.94 32.1243 110.991 32.6633 111.094 33.1935C110.68 33.1292 110.262 33.0951 109.842 33.0914C107.516 33.0914 105.285 34.0155 103.64 35.6604C101.995 37.3053 101.071 39.5362 101.071 41.8625C101.071 44.1887 101.995 46.4197 103.64 48.0646C105.285 49.7095 107.516 50.6336 109.842 50.6336H110.49C111.271 52.2479 112.399 53.6702 113.792 54.7995C115.186 55.9287 116.811 56.737 118.553 57.1671C120.294 57.5971 122.109 57.6383 123.868 57.2877C125.627 56.937 127.287 56.2032 128.73 55.1384C130.023 56.0541 131.544 56.5964 133.124 56.7057C134.705 56.8151 136.286 56.4873 137.693 55.7583C139.1 55.0293 140.279 53.9272 141.101 52.5727C141.924 51.2182 142.357 49.6635 142.355 48.0789C144.516 47.8864 146.525 46.8878 147.983 45.2815C149.441 43.6753 150.241 41.5791 150.224 39.41Z" fill="white"/>
<path id="Vector_33" d="M121.449 58.3401C119.09 58.3507 116.774 57.718 114.748 56.5102C112.722 55.3023 111.064 53.5649 109.953 51.485H109.808C107.256 51.485 104.808 50.4712 103.003 48.6666C101.199 46.862 100.185 44.4144 100.185 41.8623C100.185 39.3102 101.199 36.8626 103.003 35.058C104.808 33.2534 107.256 32.2396 109.808 32.2396H110.089C110.089 32.0182 110.089 31.7968 110.089 31.5839C110.087 29.5434 110.734 27.5552 111.937 25.907C113.141 24.2588 114.837 23.0362 116.781 22.416C118.725 21.7958 120.816 21.8102 122.751 22.4572C124.686 23.1041 126.366 24.3501 127.546 26.0147C128.62 25.7394 129.724 25.5992 130.833 25.5974C132.675 25.5956 134.497 25.9849 136.178 26.7394C137.859 27.4939 139.36 28.5966 140.583 29.9745C140.928 29.9317 141.275 29.9089 141.622 29.9063C144.011 29.8978 146.315 30.7907 148.074 32.4068C149.833 34.0229 150.918 36.2431 151.111 38.624C151.305 41.0049 150.593 43.3712 149.118 45.2502C147.643 47.1292 145.514 48.3826 143.155 48.76C142.973 51.1426 141.898 53.3686 140.146 54.9931C138.393 56.6176 136.092 57.521 133.703 57.5226C131.953 57.5292 130.236 57.0454 128.747 56.126C126.59 57.5773 124.048 58.3486 121.449 58.3401ZM110.429 49.7563C110.593 49.7511 110.755 49.7933 110.896 49.8779C111.036 49.9625 111.149 50.0859 111.221 50.2332C111.95 51.734 113.001 53.0558 114.298 54.1048C115.595 55.1537 117.108 55.904 118.728 56.3024C120.348 56.7007 122.036 56.7373 123.672 56.4095C125.308 56.0817 126.851 55.3976 128.193 54.4059C128.338 54.3012 128.512 54.2449 128.691 54.2449C128.87 54.2449 129.044 54.3012 129.189 54.4059C130.497 55.3373 132.063 55.8347 133.669 55.828C135.732 55.8257 137.711 55.005 139.17 53.5458C140.629 52.0866 141.45 50.1082 141.452 48.0447C141.451 47.8301 141.531 47.6233 141.677 47.4654C141.822 47.3075 142.021 47.2103 142.235 47.1931C144.301 47.1084 146.248 46.2067 147.648 44.6864C149.049 43.166 149.788 41.1516 149.704 39.0862C149.619 37.0208 148.717 35.0737 147.197 33.6731C145.676 32.2725 143.662 31.5333 141.597 31.618C141.18 31.6204 140.764 31.6575 140.353 31.7287C140.207 31.7523 140.057 31.7373 139.918 31.685C139.779 31.6327 139.656 31.545 139.561 31.4306C138.123 29.6908 136.199 28.4189 134.035 27.7773C131.87 27.1358 129.564 27.1536 127.41 27.8285C127.229 27.8851 127.034 27.8797 126.857 27.8134C126.68 27.7471 126.53 27.6236 126.43 27.4624C125.526 26.0013 124.171 24.8743 122.57 24.2516C120.969 23.629 119.208 23.5445 117.555 24.011C115.901 24.4776 114.444 25.4697 113.405 26.8375C112.365 28.2053 111.799 29.8744 111.792 31.5924C111.792 32.0754 111.838 32.5572 111.928 33.0316C111.954 33.1651 111.947 33.3028 111.908 33.4332C111.87 33.5635 111.801 33.6828 111.707 33.781C111.614 33.8785 111.499 33.9525 111.371 33.9969C111.244 34.0413 111.108 34.0549 110.974 34.0364C110.6 33.9751 110.221 33.9438 109.842 33.9428C107.741 33.9428 105.727 34.7771 104.242 36.2623C102.757 37.7475 101.922 39.7619 101.922 41.8623C101.922 43.9627 102.757 45.9771 104.242 47.4623C105.727 48.9475 107.741 49.7819 109.842 49.7819H110.395L110.429 49.7563Z" fill="#093F68"/>
<path id="Vector_34" d="M103.32 59.9325C102.289 60.3013 101.417 61.0141 100.85 61.9507C100.588 62.4258 100.513 62.9813 100.639 63.5088C100.765 64.0363 101.083 64.4979 101.531 64.8035C101.053 65.6575 100.889 66.6517 101.066 67.6142C101.243 68.5766 101.751 69.4469 102.502 70.0747C103.272 70.6759 104.164 71.1005 105.117 71.3183C106.069 71.5361 107.057 71.5418 108.012 71.335C108.73 71.2573 109.422 71.0196 110.037 70.6394C110.651 70.2592 111.173 69.7462 111.563 69.1379C111.857 68.511 111.977 67.8161 111.91 67.1267C111.842 66.4372 111.59 65.7788 111.18 65.2207C110.332 64.1064 109.131 63.3136 107.773 62.9726C108.369 63.1429 107.441 60.171 106.922 59.8133C105.917 59.1065 104.376 59.5153 103.32 59.9325Z" fill="white"/>
<path id="Vector_35" d="M106.555 72.2888C104.874 72.3321 103.233 71.7632 101.94 70.6878C101.147 70.0005 100.58 69.0895 100.314 68.0743C100.048 67.0591 100.095 65.9872 100.45 64.9994C100.062 64.5192 99.8226 63.9372 99.7591 63.3236C99.6957 62.7101 99.8112 62.0913 100.092 61.542C100.734 60.4182 101.758 59.5628 102.979 59.1321C104.018 58.6808 105.968 58.0847 107.424 59.081C108.011 59.4897 108.718 61.2184 108.812 62.3936C110.039 62.8431 111.106 63.6461 111.878 64.7013C112.379 65.3868 112.685 66.1956 112.763 67.0415C112.841 67.8873 112.688 68.7385 112.32 69.5041C111.358 71.335 109.306 71.9396 108.165 72.144C107.634 72.2421 107.095 72.2905 106.555 72.2888ZM103.66 60.6904C102.809 60.9765 102.084 61.5482 101.608 62.3084C101.456 62.5857 101.405 62.9073 101.464 63.2181C101.523 63.5288 101.688 63.8094 101.931 64.0115C102.036 64.0676 102.129 64.145 102.202 64.2389C102.275 64.3327 102.328 64.441 102.357 64.5565C102.385 64.6708 102.388 64.7896 102.368 64.9054C102.347 65.0212 102.303 65.1315 102.238 65.2293C101.887 65.9171 101.78 66.7039 101.934 67.4605C102.089 68.2171 102.496 68.8987 103.089 69.3934C103.766 69.9102 104.547 70.2726 105.378 70.455C106.209 70.6375 107.07 70.6355 107.901 70.4494C108.491 70.3947 109.063 70.2088 109.572 69.9054C110.082 69.6019 110.518 69.1884 110.847 68.6951C111.066 68.2059 111.151 67.6671 111.093 67.1343C111.034 66.6014 110.835 66.0937 110.515 65.6636C109.765 64.7133 108.714 64.0466 107.535 63.7731C107.427 63.7418 107.327 63.6896 107.24 63.6196C107.153 63.5496 107.08 63.4631 107.026 63.3651C106.918 63.167 106.892 62.934 106.956 62.7172C106.983 62.6159 107.029 62.5206 107.092 62.4361C106.966 61.7354 106.721 61.0614 106.368 60.4435C105.602 59.924 104.077 60.5116 103.634 60.699L103.66 60.6904Z" fill="#093F68"/>
<path id="Vector_36" d="M87.7608 69.0698C87.8546 69.6145 88.0828 70.1272 88.4249 70.5615C88.7669 70.9957 89.2118 71.3376 89.7194 71.5564C90.7328 71.9822 92.717 71.9311 93.3301 70.8155C93.5234 70.2208 93.5725 69.5886 93.4733 68.9712C93.3741 68.3537 93.1294 67.7687 92.7595 67.2645C92.3315 66.8083 91.7483 66.5288 91.1245 66.4811C89.9579 66.4214 88.1526 67.1793 87.8119 68.4397C87.7609 68.6456 87.7436 68.8584 87.7608 69.0698Z" fill="white"/>
<path id="Vector_37" d="M91.0996 72.6548C90.5168 72.6616 89.9383 72.5546 89.3965 72.3398C88.7447 72.0616 88.1749 71.6214 87.7411 71.061C87.3074 70.5006 87.0242 69.8386 86.9184 69.1379C86.8907 68.8287 86.9195 68.517 87.0036 68.2182C87.4805 66.4299 89.7712 65.5528 91.1762 65.6635C92.0151 65.7163 92.803 66.0843 93.3818 66.6939C93.8819 67.3282 94.209 68.0814 94.3314 68.8798C94.4538 69.6782 94.3672 70.4947 94.0801 71.2498C93.7521 71.7268 93.3034 72.1083 92.7798 72.3551C92.2561 72.602 91.6763 72.7054 91.0996 72.6548ZM90.9719 67.3326C90.0777 67.3326 88.8259 67.9457 88.6386 68.661C88.6172 68.7735 88.6172 68.8891 88.6386 69.0016C88.7265 69.3899 88.904 69.7523 89.1568 70.0598C89.4096 70.3673 89.7308 70.6115 90.0948 70.7729C90.8782 71.105 92.3003 70.9858 92.6495 70.4067C92.7562 69.9743 92.7735 69.5247 92.7003 69.0854C92.627 68.6461 92.4649 68.2264 92.2237 67.852C91.9445 67.5435 91.5572 67.3544 91.1422 67.324L90.9719 67.3326Z" fill="#093F68"/>
</g>
</svg>
